<?xml version="1.0" encoding="UTF-8" standalone="no"?>
<!-- Created with Inkscape (http://www.inkscape.org/) -->

<svg
   xmlns:dc="http://purl.org/dc/elements/1.1/"
   xmlns:cc="http://creativecommons.org/ns#"
   xmlns:rdf="http://www.w3.org/1999/02/22-rdf-syntax-ns#"
   xmlns:svg="http://www.w3.org/2000/svg"
   xmlns="http://www.w3.org/2000/svg"
   xmlns:sodipodi="http://sodipodi.sourceforge.net/DTD/sodipodi-0.dtd"
   xmlns:inkscape="http://www.inkscape.org/namespaces/inkscape"
   width="72.34095mm"
   height="72.34095mm"
   viewBox="0 0 256.3262 256.3262"
   id="svg4266"
   version="1.1"
   inkscape:version="0.91 r13725"
   sodipodi:docname="identity-icons-brand.svg"
   inkscape:export-filename="/home/feeef/Projects/Purism/PureOS/Icons/PureBrowser/purebrowser_icons/icon64.png"
   inkscape:export-xdpi="22.469999"
   inkscape:export-ydpi="22.469999">
  <defs
     id="defs4268" />
  <sodipodi:namedview
     id="base"
     pagecolor="#ffffff"
     bordercolor="#666666"
     borderopacity="1.0"
     inkscape:pageopacity="0.0"
     inkscape:pageshadow="2"
     inkscape:zoom="1.5824714"
     inkscape:cx="-111.84271"
     inkscape:cy="86.595748"
     inkscape:document-units="px"
     inkscape:current-layer="svg4266"
     showgrid="false"
     fit-margin-top="0"
     fit-margin-left="0"
     fit-margin-right="0"
     fit-margin-bottom="0"
     inkscape:window-width="1920"
     inkscape:window-height="1016"
     inkscape:window-x="0"
     inkscape:window-y="27"
     inkscape:window-maximized="1"
     inkscape:snap-global="false">
    <inkscape:grid
       type="xygrid"
       id="grid4197" />
  </sodipodi:namedview>
  <metadata
     id="metadata4271">
    <rdf:RDF>
      <cc:Work
         rdf:about="">
        <dc:format>image/svg+xml</dc:format>
        <dc:type
           rdf:resource="http://purl.org/dc/dcmitype/StillImage" />
        <dc:title />
      </cc:Work>
    </rdf:RDF>
  </metadata>
  <g
     id="g4192">
    <rect
       ry="0"
       y="21.745934"
       x="7.3303528"
       height="156.84297"
       width="221.14255"
       id="rect4168"
       style="fill:#44aaee;fill-opacity:1;fill-rule:evenodd;stroke:#44aaee;stroke-width:0.81848663;stroke-opacity:1" />
    <path
       style="display:inline;opacity:1;fill:#ffffff;fill-opacity:1;fill-rule:nonzero;stroke:none;stroke-width:10;stroke-linecap:butt;stroke-linejoin:miter;stroke-miterlimit:4;stroke-dasharray:none;stroke-dashoffset:0;stroke-opacity:1"
       d="m 12.89844,27.23584 0,146.48328 75.0347,0 a 81.961695,82.889418 0 0 1 -3.76745,-16.9512 l -54.80004,0 0,-112.58082 177.84954,0 0,31.77246 a 81.961695,82.889418 0 0 1 16.46721,12.92047 l 0,-61.64419 -210.78396,0 z"
       id="path4162"
       inkscape:connector-curvature="0" />
    <ellipse
       style="display:inline;fill:#44aaee;fill-opacity:1;fill-rule:evenodd;stroke:#ffffff;stroke-width:4.19300365;stroke-miterlimit:4;stroke-dasharray:none;stroke-opacity:1"
       id="ellipse4164"
       cx="167.70561"
       cy="150.62941"
       rx="81.961685"
       ry="82.88942" />
    <path
       style="display:inline;fill:#ffffff;fill-opacity:1"
       d="m 171.53121,79.56328 -8.27571,0.35135 -0.9258,0.61035 -2.85943,0 -3.99552,0.43595 c 0,0 -3.78111,0.60865 -3.99552,0.78219 -0.21261,0.17571 0.42827,0.43596 0.42827,0.43596 l -0.0719,0.61035 -4.6392,0.69754 -0.28466,0.61035 c 0,0 0.49822,0.60748 0.56932,0.69497 0.0697,0.0868 1.99774,0.61037 1.99775,0.61036 l 2.285,0.34875 c 0,0 1.28626,0.69775 1.49768,0.95664 0.21617,0.26095 0.14718,1.04948 0.0744,1.48473 -0.0741,0.43602 -0.287,0.52106 -0.57188,1.04384 -0.28669,0.52421 0.57188,0.2615 0.57188,0.2615 l 0.9976,0.60782 c 0,0 -0.28547,-7.6e-4 -0.71548,0.0903 -0.42999,0.087 -0.9976,0.25901 -0.9976,0.25901 l -0.0718,0.96174 1.42842,-0.34881 -0.14617,0.6078 -0.99759,0.26162 -0.99762,1.47963 -0.0719,2.78769 0.21287,2.35156 0.57186,1.91826 0.92836,0.17441 1.07197,0.78473 1.42844,-0.0903 1.42587,-2.35167 1.49768,-1.74125 0.42829,-0.95912 0.7155,-0.52062 1.56692,-0.4359 2.00032,-0.52323 c 0,0 1.85276,-1.48236 2.06958,-1.65665 0.21197,-0.17354 5.34957,-2.08745 5.34957,-2.08745 l 1.14379,0.087 c 0,0 0.2854,-1.74645 0.0718,-1.92076 -0.21678,-0.17353 0.85655,-1.21813 0.85655,-1.21813 0,0 1.56962,-0.87215 1.6413,-1.13093 0.0709,-0.26324 -0.42827,-0.17952 -0.42827,-0.17952 l 0.14103,-1.30534 1.00016,-0.43339 c 0,0 -0.56779,-1.04856 -0.71292,-1.57203 -0.141,-0.51765 1.7131,-0.78218 1.7131,-0.7822 l 3.28257,-1.82846 -3.92369,0.52315 -0.14364,-0.60779 -4.14169,-1.13607 z m -24.25522,0.65395 c -0.67198,0.0141 -1.27749,0.0416 -1.44384,0.0719 -0.33324,0.0583 -2.23923,0.69798 -3.04667,0.64114 -0.80987,-0.0591 -3.42509,0.40381 -3.56723,0.34619 -0.14454,-0.0582 -1.18804,-0.11541 -1.09248,-0.11541 0.0927,0 -1.3831,1.45204 -1.62079,1.04375 -0.2371,-0.4061 0.001,-0.69791 -0.23593,-0.40776 -0.23709,0.29019 -0.18978,1.62846 -0.18978,1.62846 0.28488,0.23328 0.9016,1.04532 1.331,0.69754 0.42582,-0.34922 0.66506,-0.17422 0.80782,-0.11804 0.14082,0.0591 -0.66344,0.81553 -1.14121,0.81553 -0.47541,0 -2.00031,0.69494 -2.00033,0.69494 0,0 -0.6651,-0.7553 -0.80781,-0.81291 -0.14202,-0.0582 -0.94976,-0.11543 -1.09251,-0.11543 -0.14201,0 -0.33491,-0.17323 -0.38211,0.34879 -0.0471,0.52193 0.0492,1.33394 -0.42571,1.21803 -0.47656,-0.11656 -0.61764,0.11559 -0.85654,-0.0566 -0.23768,-0.17494 0.33354,-1.04506 -0.33595,-1.10267 -0.6659,-0.0576 -1.04544,-0.64017 -1.42587,0.28723 -0.38009,0.92569 -0.61113,0.92939 -0.23594,1.10522 0.37904,0.16984 0.61714,0.23159 1.42588,0.28987 0.80925,0.0554 0.90501,-0.0576 1.28482,0.11537 0.37746,0.17212 0.71264,0.46896 0.85654,0.0566 0.14202,-0.40383 0.3323,-0.40525 0.47445,-0.63859 0.14199,-0.23182 0.001,-0.46363 0.23849,-0.57955 0.23768,-0.11514 0.66677,0.46679 0.66677,0.46679 0,0 -0.52491,0.40623 -0.28722,0.46158 0.23711,0.0609 0.90364,0.23367 1.23867,0.28977 0.33327,0.0609 0.047,0.17441 0.61804,0.23856 0.56978,0.0544 0.80826,-0.0641 1.52077,-0.0641 0.71429,0 1.14516,-0.40351 1.38227,-0.28977 0.23709,0.11514 1.04517,0.11503 1.28225,0.0587 0.2377,-0.0587 0.81138,-0.69492 0.57189,-0.69492 -0.2395,0 -1.14348,-0.29456 -1.52333,-0.35131 -0.37982,-0.0576 -1.57224,-0.11471 -1.85413,0.0587 -0.28787,0.17495 -0.62048,0.29173 -0.81038,0.1744 -0.18993,-0.1159 0.81242,-1.04355 1.47714,-0.92834 0.66711,0.11593 1.66511,-0.11647 1.99778,-0.0589 0.33263,0.0576 1.14377,0.23338 1.14377,0.23338 0,0 0.18875,-0.11633 0.23594,-0.28978 0.0485,-0.17426 0.0949,-0.34878 0.0949,-0.34878 l 0.477,0.52316 c 0,0 3.13804,-1.56692 3.28259,-1.85926 0.14268,-0.29312 2.13896,-1.04782 2.4286,-0.98734 0.28488,0.0554 2.234,-0.98903 2.56964,-0.8155 0.32846,0.17425 2.09009,-0.51804 2.09009,-0.51803 0,0 1.28657,-0.35134 1.57204,-0.35134 0.28609,0 0.42761,-0.40381 0,-0.3462 -0.4294,0.0576 -4.00058,0.0576 -4.85463,0 -0.4294,-0.0288 -1.16679,-0.0294 -1.83875,-0.0153 z m -12.72003,2.33625 c -0.23771,0.0576 -1.00016,0.51803 -1.00016,0.51803 -0.0486,0.17643 0.47447,1.22395 0.66677,1.28226 0.18752,0.0582 0.76005,0.0594 0.80782,-0.11541 0.0472,-0.17428 -0.0461,-1.39766 -0.0461,-1.39766 0,0 -0.19178,-0.34479 -0.42826,-0.28723 z m -3.75961,0.23082 -0.42826,0.1154 c -0.0937,0.17426 -0.28323,0.58426 -0.14105,0.64113 0.14201,0.0562 1.28317,0.46408 1.42589,0.52315 0.14201,0.0591 0.57215,0.17304 0.75907,0.11542 0.18991,-0.0576 0.95305,-0.52001 0.66935,-0.69497 -0.28608,-0.17354 -1.18918,-0.41091 -1.3797,-0.52831 -0.18992,-0.11515 -0.9053,-0.17181 -0.9053,-0.17181 z m -3.96215,0.0872 c -0.0669,-0.0192 -0.12935,-0.0145 -0.17697,0.0283 -0.18991,0.17425 -1.1925,0.69754 -1.1925,0.69754 l -0.0462,0.40776 -0.77959,0.40776 c 0,0 0.8264,0.23138 1.01811,0.11542 0.19352,-0.11517 0.85911,-0.46418 0.85911,-0.46418 l 0.56675,-0.57958 0.19235,-0.29491 c 0,0 -0.24045,-0.26018 -0.4411,-0.318 z m -4.55719,1.19249 c -0.28247,0.0591 -2.61578,0.69755 -2.61578,0.69755 0,0 -0.99806,0.69553 -1.18738,0.52059 -0.0281,-0.0258 -0.0836,-0.0254 -0.13078,-0.0334 a 81.961698,82.889422 0 0 0 -0.48983,0.35653 l 0.19235,0.14103 c 0.14201,-0.1743 1.56949,0.1744 1.56949,0.1744 0,0 0.18965,0.98948 0.57189,0.70002 0.37986,-0.29303 1.47459,0.6974 1.47459,0.81039 0,0.1196 0.37956,0.0619 0.37956,0.0619 l 1.66694,-0.70012 0.93091,-0.17181 c 0,0 0.87659,-0.0619 1.01812,0.0566 0.14082,0.11461 0.85911,-0.28976 0.85911,-0.28976 l 0.28466,-0.58217 -0.62062,-0.23333 0.14618,-0.57964 c 0,0 -0.19164,-0.3471 -0.61805,0.0589 -0.43121,0.40686 -1.62023,1.21582 -1.52588,1.04381 0.0956,-0.17495 -0.47464,0.0566 -0.71294,-0.29238 -0.23948,-0.34707 -0.56932,-0.40522 -0.56932,-0.40522 0,0 -0.66998,-0.2903 -0.90528,-0.17439 -0.23888,0.11594 0.42827,-0.57959 0.42827,-0.57959 0,0 0.14159,-0.63863 -0.14618,-0.57957 z m -3.99293,2.78507 c -0.25667,0.0544 -1.57224,0.0142 -1.86185,0 a 81.961698,82.889422 0 0 0 -3.78781,3.36464 c 0.37702,0.087 0.92527,0.0891 0.98479,-0.0566 0.0999,-0.23476 0.95446,-0.0587 1.14378,-0.40525 0.18992,-0.34914 1.13951,-1.04677 1.28225,-0.93086 0.1427,0.11755 -0.28549,0.6949 -0.42826,0.75395 -0.14269,0.0576 0.48001,0.11634 -0.14104,0.70014 -0.61697,0.57953 -0.47445,1.10265 -0.47445,1.10265 0,0 -0.52408,0.29107 -0.14363,0.40775 0.38043,0.11667 1.0925,0.52061 1.0925,0.52061 0,0 0.0487,0.40655 0.0487,0.52322 0,0.11581 0.23831,0.46516 0.75911,0.0587 0.52675,-0.40689 1.57293,-0.87105 1.71566,-0.69752 0.142,0.17354 0.47682,-0.0576 0.954,-0.11547 0.47361,-0.0566 0.85655,-0.23334 0.85655,-0.23334 l 0.61549,0.11785 c 0.28608,0.17356 0.52494,-0.2316 1.00273,0.11549 0.473,0.34849 1.13863,0.3462 1.13863,0.3462 0,0 0.66886,-0.6374 0.81039,-0.69501 0.1432,-0.0576 0.42741,-0.11613 0.28467,-0.52313 -0.14201,-0.40764 -0.66589,-1.0447 -0.52316,-1.1643 0.14201,-0.11514 0.47547,-0.23116 0.42826,-1.33351 -0.0471,-1.10243 0.0941,-0.92628 -0.1436,-0.86941 -0.2371,0.0576 -0.80782,0.40524 -0.80782,0.40524 l -0.18977,-0.0566 c -0.0942,0.34783 -0.52268,0.57986 -0.62062,0.92834 -0.0942,0.34784 -0.37698,0.52106 -0.37698,0.23085 0,-0.29021 -0.3339,-0.34773 -0.38467,-0.57955 -0.0442,-0.23258 -0.47329,-0.1756 -0.71039,-0.11797 -0.23831,0.0576 -0.90546,-0.52236 -1.14377,-0.28978 -0.23529,0.23258 -0.47687,-0.11316 -0.66678,-0.63597 -0.18814,-0.52202 -0.42744,-0.93315 -0.71292,-0.87704 z m 11.43263,0.46158 c -0.0259,-0.0114 -0.06,-0.0114 -0.10773,0.0114 -0.38102,0.11374 -1.1922,0 -1.57206,0.17191 -0.38042,0.17419 -0.85502,-0.22889 -0.80781,0.23334 0.046,0.46439 0,0.86932 0,0.86932 l -0.52317,-0.11537 c 0,0 -0.0476,-0.46418 -0.18977,-0.46418 -0.14744,0 -0.57189,0.63859 -0.57189,0.63859 0,0 0.62052,0.29053 0.71549,0.5231 0.095,0.23258 0.33084,0.52116 0.33084,0.69753 0,0.17136 1.56948,-0.58216 1.56948,-0.58216 l 0.85912,-0.52311 c 0,0 0.0441,0.11504 0.0949,-0.1744 0.0476,-0.29022 -0.095,-0.52051 0,-0.57955 0.0821,-0.0501 0.3837,-0.63532 0.2026,-0.70263 z m 2.70558,0.0114 c 0,0 -1.38893,0.0412 -1.46181,0.2179 -0.0716,0.1743 -0.99758,1.34894 -0.99758,1.34894 l -0.5719,0.52322 -1.89259,1.44125 -0.0719,1.00013 -0.78217,-0.17441 -0.5719,-0.13081 -1.42587,0.69503 0,0.95912 -2.60812,0.17692 c 0,0 -1.24636,-0.22085 -1.24636,-0.43591 0,-0.22019 -0.4631,-0.65392 -0.60522,-0.65392 -0.14507,0 -1.75156,0.6077 -1.75156,0.6077 l -0.0719,0.61042 -1.85415,-0.12829 c 0,0 -1.53353,0.34381 -1.49768,0.17179 0.0359,-0.17354 -0.8232,-0.087 -0.8232,-0.087 l 1.28481,-0.69751 -0.88988,-0.52323 -1.60796,-0.30259 -1.14121,-0.43591 -0.6873,0.11536 a 81.961698,82.889422 0 0 0 -21.89073,38.90868 l 0.52574,0.39742 0.39235,0.87203 0.21542,3.57231 0.63858,1.61043 -0.71037,0.61043 0.81807,1.39243 0.32312,0.0457 0.6437,0.91292 -0.25132,1.22075 0.67703,0.6514 0.6437,1.22064 0.10773,0.61031 0.60779,-0.74101 -0.60779,-1.52345 c 0,0 -0.42819,-1.1343 -0.39238,-1.39243 0.036,-0.26248 -0.56931,-2.22348 -0.56931,-2.22348 0,0 -0.57352,-1.48332 -0.50009,-1.61304 0.0695,-0.1319 -0.43086,-1.00013 -0.43086,-1.00013 l 0.25135,-1.78496 1.03349,0.26162 c 0,0 0.17952,1.65121 0.17952,1.82845 0,0.17353 0.24875,1.22074 0.24875,1.22074 l 1.35663,2.30545 -0.21286,1.17714 2.603,3.78782 -0.0359,1.52585 -0.39238,0.73851 0.21286,1.04883 2.17984,1.95936 0.3539,-0.0837 0.64371,0.78462 2.35421,1.43874 1.17712,0.34871 1.3951,-0.52572 0.88989,0.52572 1.35663,1.91586 1.39254,0.43331 1.42331,0.61292 0.68216,0 0.17952,1.00023 c 0,0 0.64199,1.00285 0.78473,1.13345 0.14151,0.12992 0.0359,1.26421 0.0359,1.26421 l 0.60522,0.3872 0.71293,0.91826 0.46418,0.52311 0.50264,0.69763 0.31801,-0.26173 0.64369,0.21552 0.92579,1.04883 0.60524,-0.43863 -0.17439,-0.82572 0.56677,-0.69752 0.50263,0 0.53598,0.52312 -0.0359,0.61042 0.64112,1.26174 0.036,3.52869 -0.57188,1.13354 -0.78474,0.65393 -0.0334,1.04372 -0.82319,0.38981 -0.32058,1.39515 -0.50007,1.22063 0.10772,1.04373 0.71294,0.78483 -0.6437,0.83354 -0.46162,0.82311 0.42573,1.65415 c 0,0 0.21286,0.8293 0.21286,0.74101 0,-0.087 0.67958,0.56933 0.67958,0.56933 l 1.24893,3.04419 1.21044,2.13876 c 0,0 1.76445,4.33562 1.80031,4.36986 0.53213,0.47755 4.41354,3.89296 4.41354,3.89296 l 0.66419,4.23916 0.19234,8.94228 0.56932,2.55935 -0.23849,5.17001 -0.18977,1.04384 c 0,0 0.76166,1.62697 0.76166,1.86172 0,0.23193 0.14105,2.26196 0.14105,2.26196 l 0.52316,2.20804 0.61805,-0.0566 -0.37954,-1.27718 0.47699,0.0566 0.32826,2.03091 0.0487,0.8131 -0.37698,-0.40524 -0.33596,0.40524 -0.2385,0.34871 0.47701,0.52572 -0.13336,0.44886 a 81.961698,82.889422 0 0 0 6.81392,3.51848 c 0.0219,-0.0511 0.0426,-0.10651 0.0742,-0.13593 0.19231,-0.17353 0.57189,-1.04632 0.57189,-1.04632 l -0.57189,-0.34872 -0.95144,-1.15921 0.0949,-1.3387 0.57189,-0.40525 c 0,0 0.0475,-0.75732 -0.0462,-0.93097 -0.0974,-0.17191 0.14188,-1.04579 0.28468,-1.10265 0.14388,-0.0587 0.52058,-0.75657 0.52058,-0.75657 l -0.66165,0 -0.38211,-0.17169 -0.477,-0.92848 0,-0.70011 0.80781,0.29249 0.76425,-0.17702 0.42827,-0.75395 c 0,0 -0.14255,-0.46244 -0.18977,-0.6361 -0.0477,-0.17343 0.0939,-0.9315 0.23593,-0.98979 0.14202,-0.0554 1.00017,0.0587 1.00017,0.0587 l 1.6182,-0.52061 c 0,0 0.61907,-1.33763 0.57189,-1.56945 -0.0476,-0.23193 -0.0487,-0.98739 -0.0487,-0.98739 0,0 3e-4,-0.52269 -0.37955,-0.58467 -0.38282,-0.0566 -0.38203,-0.22735 -0.477,-0.69761 -0.0969,-0.46299 -0.38212,-0.9848 -0.38212,-0.9848 l -0.47444,0.11558 0.42828,-0.5206 0.95142,0.86941 1.42589,0.29227 1.09505,-1.3386 0.76166,-2.26446 0.33339,-1.68482 0.71294,0 0.75909,-1.68492 0.28723,-1.56694 -0.23593,-1.91816 0.33082,-0.69501 2.47475,-2.03374 1.85673,-0.75645 0.62061,-0.58216 c 0,0 0.94887,-1.56706 0.94887,-1.74135 0,-0.1742 0.38213,-2.43877 0.38213,-2.43877 0,0 0.42593,-2.67058 0.37697,-2.84401 -0.046,-0.17713 0.0967,-2.49857 0,-2.55686 -0.0956,-0.0566 0.0487,-0.69751 0.0487,-0.69751 l 1.80799,-3.1364 0.85653,-2.38233 c 0,0 0.62187,-1.21988 0.52573,-1.45157 -0.0967,-0.23269 -0.61803,-2.20544 -0.61803,-2.20544 0,0 -1.14294,-0.28999 -1.1925,-0.46417 -0.0471,-0.17365 -1.99657,-2.26381 -2.04136,-2.20554 -0.0507,0.0566 -0.81227,-0.93499 -0.90786,-0.64108 -0.0931,0.29009 -1.56947,0.29238 -1.56947,0.29238 l -1.56948,-0.46929 c 0,0 -0.66471,0.58421 -0.52317,0.3487 0.14268,-0.23182 0.047,-1.62403 0,-1.38993 -0.0472,0.22965 -2.37987,-1.22074 -2.37987,-1.22074 l -0.81039,0.86943 0,-1.10278 -1.23355,-0.92834 0.14362,-1.22074 -0.57447,-0.57956 c 0,0 -0.093,0.17148 -0.14104,0.0566 -0.047,-0.11559 -0.38211,-2.43878 -0.38211,-2.43878 l -1.80798,-1.80027 -2.18754,-0.1182 -2.00033,-1.33861 -0.42827,-1.21814 c 0,0 -1.1412,-0.63532 -1.1412,-0.81038 0,-0.17343 -0.33033,-0.0576 -0.42829,-0.11819 -0.0927,-0.0566 -0.0436,-0.63586 -0.0436,-0.63586 l -0.52827,-0.52573 -0.18721,-0.15657 -0.46675,-0.17168 -0.28467,-0.48485 c 0,0 1.0353,-0.56574 0.92837,-0.52039 -0.10452,0.0403 -2.31834,0.43329 -2.31834,0.43329 l -0.21286,0.52063 -1.03606,-0.65143 -1.74899,-0.13135 c 0,0 -1.24887,-0.60859 -1.21302,-0.78212 0.0377,-0.17494 -0.39238,-0.82833 -0.39238,-0.82833 0,0 -0.28481,0.82866 -0.35646,0.91554 -0.0704,0.087 -0.9617,1.00013 -0.9617,1.00013 l 0.0667,1.39764 -0.60523,-0.78722 0.43083,-0.74123 0,-1.04372 c 0,-0.13342 0.53342,-0.43591 0.53342,-0.43591 l -0.21284,-0.56422 c 0,0 -0.64114,0.21757 -0.64114,0.34871 0,0.13005 -0.85655,0.73861 -0.85655,0.73861 l -1.03607,0.47702 -0.46419,0 c 0,0 -0.4614,0.91324 -0.57188,0.95913 -0.10562,0.0446 -0.0691,0.87454 -0.0691,0.87454 0,0 -1.14388,1.56346 -1.21559,1.38992 -0.0711,-0.17364 -1.28226,-1.38992 -1.28226,-1.38992 l -1.431,0.21278 -0.81808,0.52573 -1.00017,-0.82832 -0.78474,-1.47976 0.0744,-1.74384 0.4257,-1.91827 0.17953,-1.26184 -1.07198,-0.95902 c 0,0 -2.17471,0.21822 -2.17471,0.0869 0,-0.12863 -1.18081,0.0457 -1.14377,-0.0869 0.0338,-0.12862 0.42827,-0.95718 0.42827,-1.08994 0,-0.13124 0.28723,-1.13092 0.28723,-1.13092 l 0.46418,-1.13343 0.60523,-2.17216 0.35646,-0.74634 -1.78234,-0.12874 -1.07198,0.5205 -0.60779,2.17989 -3.03382,1.00283 -0.74883,-0.69763 c 0,0 -0.0715,0.39241 -0.0334,0.1743 0.0335,-0.21715 -0.92834,-1.74374 -0.92834,-1.74374 l -0.46419,-2.13106 c 0,0 1.21536,-4.40324 1.17712,-4.31354 -0.0354,0.0848 0.0385,-1.61565 0.0385,-1.61565 l 3.816,-3.04669 1.4618,0.25911 0.35646,0.43591 0.89501,-0.17692 0.89246,-1.08743 1.13866,0.17442 1.10528,-0.2589 0.67962,0.91542 0.99759,-0.4769 0.53598,0.69751 0.32313,0.4308 0,0.74364 -0.25132,0.69502 0.25132,1.56955 0.71294,1.22063 0.46419,0.21811 0.56931,-1.91576 -0.10772,-1.78755 -0.24878,-1.44115 0,-1.04373 1.46434,-2.17476 1.89006,-1.65665 1.49768,-1.04634 1.32073,-1.74135 -0.0718,-1.65665 0.57445,-0.12809 0.56676,-1.47973 0.56933,0.0815 1.11042,-1.69775 1.85158,-0.78211 1.14635,-0.26161 0.35648,-0.47701 -0.42829,-0.43591 0.8899,-1.61566 2.82097,-1.34893 1.7131,-0.61033 -1.39254,1.08985 0.28465,0.82582 1.03609,-0.34622 0.74883,-0.56682 1.96187,-0.65131 c 0,0 0.46581,-0.96173 0.39236,-0.74373 -0.0685,0.21726 1.00273,-0.218 1.00273,-0.218 l -0.21541,-0.52312 0.0718,-0.69752 -0.56932,0.26411 -0.86168,1.13094 -1.38996,-0.0815 -0.63856,-1.17963 0.60522,-1.00274 c 0,0 0.60456,-1.47962 0.56932,-1.38993 -0.0365,0.0847 -0.96169,-0.35131 -0.96169,-0.35131 l -1.39253,0.60771 c -0.14201,0 -1.46309,0.96076 -1.42845,0.83093 0.0365,-0.13048 -0.67702,0.47701 -0.67702,0.47701 l 1.81824,-1.78235 0.7514,-0.1333 0.85655,-0.95913 4.10323,0 1.39254,-0.34881 1.85416,-1.21813 0.14615,0.218 -0.78728,0.91293 -0.96427,1.22074 -0.92836,1.21552 -0.4642,0.74373 1.46436,0.087 c 0,0 1.14022,0.0348 1.24892,0 0.14269,-0.0435 0.17696,0.6078 0.17696,0.6078 l 0.60523,-0.5206 0.32312,1.00013 1.07197,-1.00013 -0.32312,-1.13354 0.28721,-1.04883 -1.24891,0.0468 0,-0.56671 c 0,0 -0.46365,-0.65284 -0.50008,-0.56683 -0.037,0.088 0.71344,-0.73807 0.67702,-0.65131 -0.0351,0.087 -0.32312,-0.43602 -0.32312,-0.43602 l 0.86167,-1.31044 -0.42827,-1.47714 -0.14617,-0.73862 -1.10533,-0.65391 -0.39236,-0.65653 -0.50009,-0.47701 0.39238,-1.13354 -0.17951,-0.82832 c 0,0 -0.31809,-2.70179 -0.35391,-2.61579 -0.0376,0.088 -1.50282,1.48486 -1.50282,1.48486 l -1.4951,0.91553 -0.78731,-0.82833 0.0743,-1.09244 0.67704,-0.78222 -1.10787,-0.43591 -0.0718,-0.34882 c 0,0 -0.99893,-1.21954 -1.0694,-1.13354 -0.0716,0.0903 -0.32058,0.39504 -0.32058,0.39504 l -2.35679,-0.26422 -0.81807,1.74385 -0.17952,0.91302 c 0,0 -1.29128,1.57587 -1.44897,1.69765 0.0941,-0.0337 0.70013,0.70013 0.70013,0.70013 l -0.53856,1.56695 -2.03366,1.43602 -0.99761,0.17703 c 0,0 -0.60771,2.702 -0.57188,2.87477 0.0354,0.17573 -0.81807,0.65393 -0.81807,0.65393 l -0.60781,0.52322 -0.25132,-0.95663 c 0,0 -0.2734,-0.73286 -0.38211,-0.91804 0.1595,0.0804 0.73859,0.17441 0.73859,0.17441 l 0.11027,-0.61292 -0.57445,0.0468 0.25132,-1.00274 0.53598,-1.08732 -1.85669,-0.17442 -0.42317,-0.61041 -0.93091,-0.1743 -0.0744,-0.48212 -0.64112,-0.47701 -0.78731,-0.43602 -0.85399,0.1308 -0.0359,-0.91292 0.21285,-0.87193 -0.85398,-0.1719 c 0,0 1.49762,-1.87488 1.46177,-1.78746 -0.0383,0.087 4.20839,-2.57468 4.20839,-2.57468 l 0.50264,-0.64881 0.81809,-0.0903 1.7849,-1.00022 1.35663,-1.13093 0.14106,0.087 -1.03094,1.17453 -0.28723,0.43341 -0.82064,0.47962 0.75139,0.13069 -0.11027,0.52573 0.8232,-0.1769 0.81808,-0.82833 0.64625,0.2641 0.28468,0.38981 0.89244,-0.0435 -0.036,-0.82832 -1.38996,-1.21814 -0.3257,-0.38979 -0.14106,-0.43852 0.60524,0.0924 0.50264,0.52063 0.53342,-0.65654 1.07198,-0.17179 1.06939,-0.91815 -0.0691,-0.56411 0.81807,-0.95662 -0.53597,-0.69753 1.42842,-0.0435 1.24636,0.0435 c 0,0 0.60802,-0.34544 0.71551,-0.12829 0.1075,0.21724 1.03606,1.04122 1.03606,1.04122 l -0.35648,0.39241 -1.46689,0.22052 -0.35646,0.86931 1.07452,0.17702 0.81808,-1.04633 0.88989,-0.0871 0.14361,1.04373 c 0,0 -0.99653,0.69817 -1.13864,0.74112 -0.14268,0.0468 -0.7514,0.38981 -0.7514,0.38981 l -0.0358,0.78733 -0.96427,0.1283 -0.99758,-0.2154 -0.46162,0.0435 -0.75141,0.7385 0.60523,0.65392 c 0,0 0.89394,-0.43689 1.03607,-0.5667 0.14201,-0.12963 0.60663,-0.39123 0.71294,-0.17181 0.10684,0.21725 0.71036,0.82572 0.71036,0.82572 l 0.50521,1.17974 0.46163,0.17431 1.42587,0.56421 c 0,0 1.00017,0.30706 1.00017,0.39242 0,0.087 -0.10253,-0.74123 -0.10253,-0.74123 l -0.75396,-1.08983 c 0,0 -0.0339,-0.30523 0.21284,-0.22062 0.25264,0.0871 0.85913,0.73861 0.85913,0.73861 0.10518,0.0435 0.82064,0.57184 0.82064,0.57184 l 0.28467,-0.95903 0.64112,-0.47962 -0.24618,-0.56671 -0.35906,-0.47702 -0.39235,-0.5667 0.0359,-0.65404 c 0,0 0.10574,-0.0902 0.21287,-0.1744 0.10617,-0.0859 0.42781,-0.39187 0.50007,-0.22051 0.0697,0.1743 0.7873,1.31044 0.7873,1.31044 l 0.67449,0.1718 0.32313,-0.65131 c 0,0 0.88987,-0.13168 0.88987,-0.087 0,0.0435 0.0719,-0.52312 0.0719,-0.52312 l 0.8232,-0.25911 -1.17709,-1.26934 -0.6437,-0.39242 -0.50009,0.17442 -0.46161,-0.65143 0.49752,-0.5641 0.21799,-0.78733 -0.57191,-0.69502 -0.89244,-0.21801 -0.21798,-0.56932 c 0,0 -0.74649,-0.12853 -0.85398,-0.0435 -0.10806,0.0902 -0.64371,-0.78222 -0.64371,-0.78222 l -0.46417,-0.73862 c -0.0722,-0.0446 -0.31949,-0.3536 -0.46162,-0.30773 -0.14506,0.0435 -1.64129,0.087 -1.64129,0.087 l -0.35902,0.13079 -0.46164,-0.43602 -1.8567,0.56672 -0.96169,0.91553 c 0,0 -0.0703,-0.52408 0,-0.65392 0.0695,-0.13048 0.74648,-0.60813 0.85398,-0.6949 0.10684,-0.087 -0.82064,-0.13343 -0.82064,-0.13343 0,0 -1.71385,0.69785 -1.78493,0.82833 -0.071,0.12962 -1.39251,1.39254 -1.39251,1.39254 l 0.0385,1.04634 1.21302,0.22051 0.46419,0.1283 -0.32314,0.35132 -0.24875,0.65141 -0.78476,0.52311 -0.96425,0.86943 -0.82066,0.3923 -0.14103,-0.69751 0.71294,-0.52061 c 0,0 -0.1437,-1.08875 -0.21543,-1.00273 -0.071,0.088 -0.82012,-0.0435 -0.85654,0.087 -0.0347,0.13135 0.0385,-0.82572 0.0385,-0.82572 l -0.0385,-0.91553 -0.17697,-0.70013 c 0,0 0.60783,-0.60835 0.71295,-0.65142 0.1075,-0.0435 1.24892,-0.1308 1.24892,-0.1308 l 1.82081,-1.26174 -1.50024,-0.087 0,0 z m 69.56004,2.81325 c -0.0504,0.087 -0.81039,0.52822 -0.81039,0.52822 l -1.42588,-0.29228 -1.83363,0.52051 -1.8567,0.55399 -2.68506,1.39254 0.99759,0.11537 -0.43083,0.9002 -1.18993,1.07699 -0.66167,1.3336 -0.0974,0.7283 -0.64113,0.83853 c 0,0 -0.45128,-0.28813 -0.54624,-0.40251 -0.0942,-0.11896 -1.66695,0.54876 -1.66695,0.54876 l -0.94886,1.10266 c 0,0 -0.23945,0.55508 -0.28723,0.70014 -0.0499,0.14657 0.0719,1.68492 0.0719,1.68492 0,0 0.5724,-1.2e-4 0.40521,0.20257 -0.16729,0.20191 -0.14362,1.13354 -0.14362,1.13354 l 0.66677,0.54877 c 0,0 0.87774,0.35121 1.00016,0.32055 0.11396,-0.0283 0.54517,-0.37764 0.61807,-0.43591 0.0663,-0.0566 0.59303,-0.69558 0.75908,-0.66936 0.16594,0.0326 0.59413,-0.55074 0.6437,-0.34361 0.0467,0.20333 0.14214,0.92848 0.23594,1.10267 0.0948,0.17429 0.42972,0.49299 0.57188,0.89759 0.14148,0.40752 0.33484,0.81451 0.28467,0.89758 -0.0496,0.0903 -0.37955,0.49496 -0.37955,0.49496 0,0 -0.71109,0.11558 -0.80783,0.23594 -0.0942,0.11461 -0.21557,0.17278 -0.28723,0.11537 -0.0737,-0.0576 0.23864,-0.46799 0.3103,-0.57955 0.0722,-0.11884 -0.16593,-0.58236 -0.26157,-0.55388 -0.0969,0.0304 -0.1899,-0.26205 -0.0974,-0.34881 0.0969,-0.087 0.0742,-0.6386 0.0742,-0.6386 0,0 -0.14489,-0.087 -0.21541,-0.0566 -0.0716,0.0293 -0.90272,0.4334 -0.90272,0.4334 0,0 -0.45311,0.57976 -0.47699,0.69492 -0.0258,0.11982 -0.21424,0.72796 -0.0922,1.1618 0.11805,0.4382 0.40263,1.13604 0.40263,1.13604 0,0 0.30624,0.25954 0.18977,0.37698 -0.11713,0.11503 -0.35903,0.55137 -0.35903,0.55137 l -0.56676,0.0283 c 0,0 -1.02396,0.14723 -1.1207,0.20268 -0.0937,0.0597 -1.09113,0.4358 -1.04632,0.55389 0.0504,0.11591 -0.21541,1.36688 -0.21541,1.36688 -0.0458,0.0293 -1.04602,0.89758 -1.16431,0.89758 -0.11882,0 -0.85656,0.23335 -0.85656,0.23335 0,0 -0.33122,1.0746 -0.35388,1.01556 -0.0239,-0.0587 -1.12327,0.63859 -1.12327,0.63859 0,0 -0.83011,-0.29293 -0.85399,-0.41035 -0.0239,-0.11516 -0.31067,-0.37471 -0.33337,-0.28718 -0.0251,0.088 0.28464,0.99002 0.28464,1.16421 0,0.16995 0.0495,0.51897 -0.0462,0.40524 -0.0954,-0.11884 -0.57239,-0.28716 -0.66675,-0.34621 -0.0974,-0.0566 -0.90529,-0.0304 -0.90529,-0.0304 l -0.33082,0 c 0,0 -0.40694,0.437 -0.43085,0.34882 -0.022,-0.088 -0.0462,0.37948 -0.0462,0.37948 l 0.23593,0.28727 0.85912,0.43601 0.80783,0.61033 0.31031,0.92835 0.35645,0.87193 c 0,0 -0.23787,1.79778 -0.28208,1.88749 -0.0526,0.0859 -0.55139,0.49495 -0.55139,0.49495 l -1.5464,-0.0304 c 0,0 -0.76239,-0.2017 -0.83347,-0.23083 -0.0709,-0.0304 -1.1408,0.17245 -1.16173,0.0566 -0.024,-0.11754 -0.35904,-0.087 -0.35904,-0.087 l -0.16925,-0.23345 -0.42828,0 -0.35646,0.49245 -0.52316,0.0337 0,0.52061 c 0,0 0.21368,1.19204 0.18978,1.10538 -0.0239,-0.0903 -0.0924,1.39243 -0.0924,1.39243 0,0 -0.5148,1.26304 -0.56676,1.35926 0.0118,0.038 -0.0283,0.84877 -0.0283,0.84877 l 0.31031,0.61042 0.0462,0.72319 c 0,0 -0.23665,0.66794 -0.14105,0.61032 0.0963,-0.0587 0.85615,0.0283 0.87706,-0.087 0.024,-0.11515 0.47697,-0.37633 0.54625,-0.17431 0.0703,0.20268 0.3363,-1.1e-4 0.41032,0.35131 0.0662,0.34773 0.3308,0.83976 0.35648,0.92576 0.0233,0.0903 0.21285,0.17441 0.21285,0.17441 l 0.0691,0.23594 -0.14362,0.14615 -0.59241,1.62337 -1.31047,1.13344 -0.78473,0.6078 -0.21286,0.7283 -0.3334,0.46417 -0.0949,0.9002 c 0,0 0.0959,1.13007 0.0462,1.18986 -0.0458,0.0576 -1.78232,2.0618 -1.78232,2.0618 l -0.95145,0.26171 -0.52573,1.10527 c 0,0 -0.71309,0.81028 -0.75909,0.95902 -0.0495,0.14288 -0.4052,0.69502 -0.4052,0.69502 0,0 0.024,1.16017 0,0.98741 -0.0245,-0.1743 -1.02322,0.95651 -1.02322,0.95651 0,0 -0.18874,1.33786 -0.23595,1.39756 -0.0472,0.0554 -0.52409,1.07307 -0.59754,1.04393 -0.071,-0.0304 -0.14105,0.69622 -0.14105,0.81289 0,0.11547 0.23594,0.46157 0.23594,0.46157 0,0 0.33635,0.78755 0.35903,0.70012 0.0227,-0.0891 0.0231,0.26161 0.0231,0.26161 l -0.33339,0.40514 c 0,0 0.35903,0.66979 0.35903,0.75658 l 0,1.79766 -0.3821,0.9899 -0.18978,1.27967 -0.57446,0.5489 0.0257,0.3487 0.50009,0.49235 0.0743,0.55148 -0.14617,0.61032 0,0.61292 0.35902,1.01808 c 0,0 0.35722,0.34652 0.42829,0.25909 0.071,-0.088 0.78032,0.55194 0.87707,0.75395 0.0954,0.20345 0.97451,1.48139 0.97451,1.54118 0,0.0566 0.14362,0.34631 0.14362,0.34631 l 0.42826,1.77203 c 0,0 2.07054,2.09136 2.1183,2.00536 0.0478,-0.0837 2.21062,1.88499 2.21062,1.88499 0,0 1.74151,-1.04232 1.71822,-0.95404 -0.0258,0.0859 1.47205,-0.0891 1.47205,-0.0891 l 0.90527,0.17431 0.66163,0.37697 2.43117,-1.36167 0.47446,-0.44123 1.87721,-0.0816 0.90527,0.43101 c 0,0 0.59498,1.07721 0.59498,1.25141 0,0.17419 0.35677,0.95783 0.40519,0.84114 0.0458,-0.11293 2.11727,-0.23029 2.1901,-0.20267 0.0687,0.0293 0.97452,1.10538 0.97452,1.10538 l -0.0487,1.01807 -0.14362,1.79767 -0.28465,0.87204 -0.28211,0.78472 -0.0719,0.55137 c 0,0 2.13627,3.83371 2.13626,3.86209 0,0.0293 0.54879,1.59511 0.54879,1.59511 l 0.64371,2.00795 0.38211,1.12844 -0.38211,0.63848 0.6206,1.95175 -0.21541,1.91303 -0.92835,2.46965 -0.40521,1.82846 0.12054,2.44137 1.11301,2.81574 1.16941,3.2236 0.11791,3.54675 0.93091,2.11572 0.66677,1.71308 0.64113,1.86183 0.33084,0.55138 c 0,0 0.0499,0.92837 -0.0257,0.92837 -0.0697,0 -0.4238,0.0315 -0.32825,0.20257 0.0942,0.17353 0.63856,1.3361 0.63856,1.3361 l 0.0231,0.52572 0.76166,0.518 0.66935,-0.37435 c 0,0 0.6663,-0.14365 0.73858,-0.11548 0.0697,0.0283 0.99502,-0.37969 0.99502,-0.37969 l 1.42844,0.2616 1.00016,-0.63848 1.09505,-0.0837 c 0,0 1.87723,-2.23555 1.87723,-2.17728 0,0.0576 1.73361,-2.72864 1.73361,-2.72864 l 0.88476,-0.93335 0.49754,-1.82857 -0.0691,-1.18736 c 0,0 0.16607,-0.61314 0.33084,-0.72829 0.16846,-0.11559 1.78489,-1.27705 1.78489,-1.27705 l 0.33595,-1.91838 -0.31287,-1.88999 c 0,0 -0.23849,-0.72122 -0.23849,-0.83855 0,-0.11427 0.16669,-0.6412 0.16669,-0.6412 l 1.57204,-1.71308 c 0,0 0.35655,-0.55137 0.52317,-0.75395 0.16728,-0.20267 1.63872,-0.98729 1.63872,-0.98729 l 1.00273,-1.18736 0.1667,-4.38779 c 0,0 -0.35884,-1.62991 -0.38212,-1.77213 -0.0232,-0.14876 -0.71293,-2.90283 -0.71293,-3.02093 0,-0.11426 -0.23725,-1.80191 -0.26415,-1.94913 -0.019,-0.13995 0.54626,-2.08735 0.54626,-2.08735 l 0.78729,-1.89009 3.21335,-4.50067 1.81056,-1.76962 2.73376,-5.4623 0.88219,-2.52857 0.18721,-2.55174 -0.56931,-0.1182 c 0,0 -0.28797,0.40731 -0.35903,0.46418 -0.0716,0.0587 -1.71056,0.17703 -1.71054,0.17703 l -2.00033,0.72307 -0.97451,0.43601 -0.95144,-1.21824 0.14105,-0.86932 -1.28227,-1.86172 -1.80797,-2.20303 c 0,0 -0.90813,-0.84628 -0.85913,-0.93086 0.0489,-0.0893 -0.50008,-2.12019 -0.50008,-2.0619 0,0.0576 -0.90527,-1.01567 -0.90527,-1.01567 l -0.0231,-1.94882 -0.97452,-1.94131 -1.0694,-2.38505 c 0,0 -0.90463,-2.73234 -1.00017,-2.8775 -0.0931,-0.14429 -0.45105,-0.86692 -0.3334,-0.83844 0.11897,0.0304 0.97452,-0.11819 0.97452,-0.11819 0,0 1.59514,2.2973 1.59514,2.41322 0,0.11558 0.95142,2.05939 0.95142,2.05939 0,0 0.71296,1.22053 0.71296,1.13082 0,-0.0826 0.16821,1.13353 0.14361,1.22324 -0.0234,0.088 0.42827,1.42331 0.42827,1.42331 l 1.35663,1.48224 0.28467,1.072 1.23611,1.65675 0.24104,1.04624 -0.83602,-0.93348 c 0,0 -0.26169,0.52595 -0.1667,0.61555 0.0942,0.0837 0.92837,1.15919 0.92837,1.15919 l 0.40775,1.47964 0.31029,1.39524 0.44881,0.46408 1.33355,-0.31793 0.23593,-0.64119 1.31047,0 0.56931,-0.52062 0.71039,-0.11819 c 0,0 0.55035,-0.6711 0.59753,-0.70024 0.0489,-0.0283 2.16447,-1.15909 2.16447,-1.15909 0,0 0.0474,-0.84627 0.1436,-0.84627 0.0954,0 2.21319,-0.813 2.21319,-0.813 l 0.21285,-0.98478 0.75909,-0.0587 0.21542,-0.66675 0.73858,-0.55138 0.0922,-1.45157 0.54881,0.20016 0.16668,-0.49506 -0.18977,-0.31533 0.83346,-1.47984 0.0231,-0.52573 -0.8104,-0.90008 -0.37955,-0.49234 c 0,0 -1.28454,-0.17648 -1.33355,-0.29239 -0.0467,-0.11688 -0.54624,-1.51302 -0.54624,-1.51302 0,-0.43308 0.0236,-1.219 -0.0487,-1.15919 -0.0685,0.0576 -0.47443,0.6078 -0.47443,0.6078 l -1.47203,1.65666 -1.28739,0.40775 c 0,0 -0.42625,-0.14483 -0.45135,-0.23073 -0.0233,-0.088 -0.0718,-1.42591 -0.0718,-1.42591 0,0 -0.54781,-0.78234 -0.56932,-0.8976 -0.0232,-0.11689 -0.43085,1.01557 -0.43085,1.01557 0,0 -0.61865,-1.01676 -0.54878,-1.04895 0.0709,-0.0261 -0.28468,-1.01545 -0.28468,-1.01545 l -1.23352,-1.73875 -0.0718,-0.90269 c 0,0 0.5955,-0.78637 0.68986,-0.8155 0.0942,-0.0293 0.95016,-0.17146 1.04631,0.20768 0.0955,0.37392 0.8104,1.65491 0.8104,1.82856 0,0.17342 1.08981,1.33437 1.21045,1.30522 0.11713,-0.0283 0.54473,0.26042 0.68985,0.37698 0.14203,0.11557 0.42621,0.31945 0.54624,0.46679 0.11896,0.14211 0.42827,0.0587 0.42827,0.0587 l 0.78475,-0.14613 c 0,0 0.6411,-0.75613 0.66678,-0.61042 0.0209,0.14798 0.76114,0.20475 0.66677,0.40524 -0.0954,0.20419 0.0246,0.7882 0.0924,0.96163 0.0741,0.17583 3.28514,0.78483 3.28514,0.78483 l 1.47718,0.23084 c 0,0 1.56625,-0.1744 1.6618,-0.1744 0.0942,0 1.09559,0.11819 1.18995,0.0837 0.0931,-0.0261 1.52332,1.89012 1.52332,1.89012 l 1.33097,0.81549 0.30775,-0.0315 -0.75653,0.40786 c 0,0 0.25646,0.72689 0.25646,0.81288 0,0.088 1.33355,1.24901 1.33355,1.24901 0,0 0.47516,-0.37969 0.54623,-0.37969 0.0728,0 0.40635,-0.14526 0.43086,-0.3487 0.0232,-0.20269 -0.0731,-0.78026 0.0462,-0.83866 0.12132,-0.0576 0.28482,-0.23301 0.31286,0.0315 0.0208,0.25966 0.31116,2.75812 0.2616,2.78508 -0.052,0.0336 0.40261,1.88783 0.40261,1.9747 0,0.088 0.59595,2.35449 0.61807,2.44126 0.0245,0.0848 0.99832,2.64123 1.06939,2.72876 0.0698,0.088 1.02324,3.10551 1.02324,3.10551 0,0 0.54765,1.25184 0.52318,1.45669 -0.0232,0.20333 0.1926,1.18877 0.33593,1.30545 0.14217,0.11547 0.7822,0.40764 0.7822,0.40764 0,0 0.35583,-0.38121 0.3821,-0.49484 0.0216,-0.11559 0.28441,-0.63685 0.377,-0.81039 0.0962,-0.17713 0.52985,-0.23236 0.55137,-0.11819 0.022,0.11688 0.52315,0.40775 0.52315,0.40775 l -0.0513,1.4207 c 0,0 0.0968,0.92792 0.16669,1.28239 0.0196,0.0902 0.0754,0.17734 0.14618,0.25639 a 81.961698,82.889422 0 0 0 0.51803,-3.46205 c -0.14295,-0.18919 -0.26718,-0.3561 -0.3026,-0.40013 -0.0722,-0.0837 -0.5283,-0.17179 -0.5283,-0.17179 0,0 0.0515,0.29151 0.0974,0.40514 0.0496,0.11688 -0.0974,0.14873 -0.0974,0.14873 l -0.54625,-0.2615 0.0949,-0.76167 c 0,0 0.4097,-0.0869 0.47956,-0.0869 0.0691,0 -0.0282,-1.1618 -0.0282,-1.1618 0,0 0.14713,-2.05995 0.19489,-2.11823 0.0478,-0.0609 -0.071,-2.09125 -0.26157,-2.17726 -0.18812,-0.088 -0.001,-0.75493 0.0949,-0.78483 0.0942,-0.0304 1.02324,-0.43331 1.02324,-0.43331 l 0.20516,-0.49233 a 81.961698,82.889422 0 0 0 0.008,-0.15147 81.961698,82.889422 0 0 0 -23.53202,-58.09608 c 7.6e-4,0 0.004,0.0114 0.006,0.0114 0.0489,0.26108 -0.14362,0.57956 -0.14362,0.57956 l -1.02067,-0.57956 -2.26191,-0.86932 c 0,0 -2.18736,-0.17484 -2.14136,-0.2616 0.0495,-0.087 -0.83349,-0.69752 -0.83349,-0.69752 l -0.50008,0.31793 c 0,0 0.47478,0.41047 0.54881,0.43602 0.071,0.0326 0.78474,0.35132 0.78476,0.35132 0,0 0.21498,0.1445 0.26156,0.37698 0.0496,0.23115 -0.40264,0.52061 -0.40264,0.52061 0,0 -0.30773,-0.40635 -0.30773,-0.49246 0,-0.087 -0.0751,-0.4345 -0.16925,-0.37697 -0.0956,0.0587 -0.97453,0.61042 -0.97453,0.61042 0,0 -0.99808,0.0283 -1.11813,0.14353 -0.11883,0.11602 -0.76261,0.66979 -0.81039,0.52323 -0.0489,-0.14517 0.0957,-0.75603 0.0744,-0.87193 -0.0251,-0.11591 -1.00018,0.20517 -1.00018,0.20517 0,0 -1.25837,0.49159 -1.30791,0.63598 -0.0467,0.14723 -0.61753,0.29141 -0.71549,0.32054 -0.0942,0.0293 -0.21286,0.0283 -0.21286,0.0283 0,0 -0.49832,0.37906 -0.4052,0.57956 0.0954,0.20409 -0.68984,0.31804 -0.68984,0.31804 0,0 -0.49731,-0.37447 -0.5206,-0.45907 -0.0227,-0.0794 0.5412,-0.54279 0.59496,-0.58215 -0.073,0.0576 -0.59451,-0.75559 -0.66676,-0.78472 -0.0627,-0.0228 -1.35692,0.0174 -1.58745,0 0.15049,0.0675 0.61034,0.61216 0.61034,0.6924 0,0.0869 0.0742,0.93096 0.0742,0.93096 0,0 0.37589,0.29065 0.4488,0.25641 0.071,-0.0261 -0.0718,0.49754 -0.0718,0.49754 l -0.63857,-0.087 c 0,0 -0.26576,-0.46906 -0.47956,-0.20517 -0.2144,0.26389 -0.9254,0.93304 -0.97195,0.84627 -0.0488,-0.087 -0.45471,0.0847 -0.43085,0.259 0.0246,0.17506 0.33341,0.55138 0.33341,0.55138 0,0 -0.44941,0.46516 -0.40521,0.29239 0.0496,-0.17649 -1.23484,-0.58053 -1.33099,-0.55139 -0.0987,0.0293 -0.64368,0.23085 -0.64368,0.23085 l 0.23593,0.49233 c 0,0 0.71404,0.0587 0.80783,0.23335 0.0987,0.17353 -0.16337,0.52061 -0.23851,0.52061 -0.0669,0 -1.73361,-0.95653 -1.73361,-0.95653 0,0 -0.54693,-0.69491 -0.38213,-0.89759 0.17084,-0.20344 0.31177,-0.5231 0,-0.5231 -0.30754,0 -0.64011,-0.29184 -0.66163,-0.40775 -0.0251,-0.11602 1.87466,0.23333 1.87466,0.23333 l 1.09762,0.14364 c 0,0 -0.14085,0.17636 0.28722,0 0.42642,-0.1743 1.14055,-0.61129 1.2361,-0.63609 0.0954,-0.0336 0.21285,-0.58465 0.21285,-0.58465 l -0.14361,-0.49234 -4.08783,-1.18998 c 0,0 -1.359,-0.49538 -1.38229,-0.58215 -0.0232,-0.087 -1.21301,-0.23334 -1.21301,-0.23334 l -0.57189,0.0924 0.47699,-0.72829 c 0,0 -1.85746,-0.66892 -1.90287,-0.58216 l 0,0 z m 23.48842,0.86682 c 0.002,0.16331 0.0217,0.44613 0.0385,0.55637 0.0216,0.14515 1.02069,0.46679 1.02069,0.46679 0,0 0.0541,0.0336 0.0691,0.0413 a 81.961698,82.889422 0 0 0 -1.12838,-1.06428 z m -13.92789,1.51551 c -0.0118,0 0.001,0 0.0307,0 -0.0118,0 -0.0264,0 -0.0307,0 z m -41.00925,2.20803 -1.28226,0.87203 c 0,0 0.6402,0.34958 0.85399,0.52312 0.2138,0.17418 0.64369,-0.17441 0.64369,-0.17441 l 0,0.78473 c 0,0 1.14215,0.7832 0.99761,1.04633 -0.14151,0.2603 1.85671,-0.26411 1.85671,-0.26411 l 1.99775,-0.78473 0.42572,-0.95663 -0.78218,-0.7821 -3.64162,0.5206 -1.06941,-0.78483 z m 30.27673,0.67969 c 0.0589,0.0114 0.10529,0.0403 0.12304,0.10551 0.0711,0.26095 0.25916,0.31836 0.0949,0.40513 -0.16662,0.0869 -0.54644,0.4944 -0.78477,0.75395 -0.2365,0.26031 -0.95332,0.84573 -1.04887,0.87193 -0.0935,0.0304 -0.14459,0.0859 -0.3334,0.23344 -0.18991,0.14212 -0.19054,-0.20354 -0.23593,0.34621 -0.0496,0.55258 -0.11869,1.16126 -0.0257,1.36689 0.0955,0.20267 0.16619,0.52344 0.0718,0.66924 -0.0942,0.1458 -0.0245,0.23139 0,0.49245 0.0246,0.26096 0.31561,0.37567 0.33593,0.49233 0.022,0.11593 0.40264,0.34883 0.40264,0.34883 0.18994,-0.0261 0.40775,-0.0554 0.45136,0.0619 0.0496,0.11602 0.14617,0.0566 0.14617,0.0566 l 0.40007,-0.11787 c 0,0 0.40545,-0.29075 0.54881,-0.2616 0.142,0.0293 0.33344,-0.0576 0.50008,0 0.16661,0.0587 0.87915,-0.23095 0.97709,-0.20259 0.0942,0.0326 0.75824,-0.31922 0.80781,-0.20256 0.0476,0.11592 0.40519,0.087 0.40519,0.087 l 0.28467,0.26152 c 0,0.17353 -0.28656,0.58062 -0.35647,0.64119 -0.0722,0.0566 -0.30862,0.2913 -0.45135,0.23074 -0.14202,-0.0566 -0.2409,0.0293 -0.43084,-0.0566 -0.19052,-0.0893 -0.54757,-0.20768 -0.6437,-0.20768 -0.0948,0 -1.21045,0.32316 -1.21045,0.32316 l -0.56932,0.20256 -0.0974,0.40775 0.0719,0.0869 0.57187,0.43341 c 0,0.14646 0.23936,0.0587 0.18978,0.40774 -0.0467,0.34773 -0.0727,0.49322 -0.1436,0.66675 -0.073,0.17495 -0.35722,0.49398 -0.42827,0.28978 -0.0711,-0.20268 -0.42444,-0.57998 -0.52061,-0.66676 -0.0931,-0.0869 -0.38055,-0.0283 -0.55137,-0.0283 -0.16543,0 -0.49752,0.29107 -0.49752,0.61041 0,0.3186 -0.16743,0.72689 -0.0974,1.04112 0.0723,0.3237 0.38321,0.73156 0.24105,0.93347 -0.14504,0.2042 -0.47588,0.3499 -0.61805,0.43601 -0.142,0.087 -0.47729,0.3758 -0.59495,0.43341 -0.11884,0.0576 -0.47655,0.23357 -0.54881,0.0304 -0.0697,-0.20409 -0.21286,-0.5231 -0.21286,-0.5231 0,0 -0.11949,-0.28934 -0.16926,-0.20258 -0.0426,0.0837 -0.30775,0.11798 -0.30775,0.11798 l -0.61548,0.28977 c 0,0 -0.33535,0.28794 -0.40519,0.3462 -0.0737,0.0576 -0.42915,0.0566 -0.57188,0.14365 -0.14201,0.088 -0.57223,0.52397 -0.68985,0.32054 -0.12067,-0.20191 -0.18905,0.14504 -0.33596,-0.17441 -0.13913,-0.31858 -0.0937,-0.66751 -0.26158,-0.60771 -0.16425,0.0576 -0.54759,0.17387 -0.59241,0.28978 -0.0499,0.1159 -0.0954,0.11493 -0.18721,0.23083 -0.0954,0.11516 -0.78731,0.20257 -0.78731,0.20257 l 0,-0.0566 -0.002,0 0.78731,-0.81289 0.16669,-0.78472 c 0,0 0.737,0.14558 0.75908,0.26161 0.0234,0.11461 0.19261,-0.2639 0.37957,-0.0587 0.1923,0.20268 0.42943,0.1731 0.45391,0.34881 0.0209,0.17495 0.16648,0.37818 0.18977,0.26162 0.0232,-0.11669 0.0231,-0.49496 0.0231,-0.49496 0,0 -0.21279,-0.14298 -0.33339,-0.23344 -0.12015,-0.0859 -0.0938,-0.34698 0.0257,-0.4308 0.11712,-0.087 0.45008,-0.3249 0.54624,-0.23596 0.0954,0.0848 0.52318,-0.11535 0.52318,-0.11535 0,0 0.0713,-0.17855 0.11792,-0.26162 0.0499,-0.0902 0.2872,-0.87193 0.2872,-0.87193 0,0 -0.16884,-0.0859 -0.2154,-0.34881 -0.0477,-0.25954 0.26311,-1.01599 0.33596,-1.04373 0.068,-0.0304 1.00016,-0.70012 1.00016,-0.70012 0,0 0.3556,-0.46483 0.21284,-0.60772 -0.14386,-0.14722 -1.213,-0.78591 -1.213,-0.93095 0,-0.14517 -0.12068,-0.90119 -0.0513,-1.18998 0.0723,-0.28935 0.50145,-0.84247 0.57188,-0.95903 0.0723,-0.11304 0.59688,-0.89823 0.69242,-0.87193 0.0954,0.0315 0.45052,-0.0576 0.54368,-0.11282 0.0974,-0.0609 0.92947,-0.52551 0.78732,-0.55389 -0.142,-0.0293 0.0476,-0.55159 -0.0257,-0.52321 -0.0709,0.0283 0.0718,-0.66556 0.23852,-0.72319 0.16542,-0.0576 0.45107,-0.32054 0.52571,-0.32054 0.0668,0 0.64257,0.0304 0.78475,0.0587 0.1064,0.0218 0.41275,-0.13482 0.58983,-0.10551 z m -18.0491,6.69848 -0.33082,0.16918 -0.3103,0.55649 c 0,0 -0.28617,0.087 -0.40263,0 -0.1175,-0.087 -0.35896,9.8e-4 -0.45394,-0.0283 -0.0948,-0.0326 -0.31284,0.34872 -0.31286,0.34872 0,0 -0.32955,0.43318 -0.4257,0.46167 -0.0948,0.0293 -0.42651,0.49462 -0.40263,0.52312 0.0258,0.0293 0.0462,0.40774 0.0462,0.40774 0,0 -0.071,0.14266 -0.18977,0.17181 -0.11804,0.0283 0.0949,0.52321 0.0949,0.52321 l 0.28722,0.17691 c 0,0 -0.16975,0.20137 -0.26414,0.17441 -0.0969,-0.0326 -0.30963,0.28911 -0.14362,0.37436 l 0,0 c 0.16729,0.0847 0.23614,0.20204 0.21286,0.28728 -0.0208,0.0903 0.35902,0.14874 0.35902,0.14874 l 0.31031,-0.087 -0.2154,0.40525 c 0,0 0.0473,0.26291 0.11791,0.37947 0.0736,0.1158 0.31286,0 0.31286,0 0,0 0.56946,-0.11634 0.64113,-0.087 0.0691,0.0271 -0.0257,0.28976 -0.0257,0.28976 l 0.218,0.40524 c 0,0 0.11462,0.58118 0.13847,0.75395 0.0258,0.17725 -0.18978,0.11538 -0.18978,0.11538 0,0 -0.44649,0.087 -0.54623,0.0619 -0.0948,-0.0293 -0.28534,0.19964 -0.45136,0.4308 -0.1678,0.23692 0.0257,0.14875 0.0257,0.14875 l 0.35391,0 c 0,0 0.0263,0.28748 0.0487,0.40774 0.0216,0.11591 -0.28638,0.23183 -0.37954,0.20257 -0.095,-0.0271 -0.52317,0.23345 -0.52317,0.23345 l 0.0205,0.43591 0.52573,0.0566 0.52573,0.087 0.0949,0.20256 c 0,0 -0.33766,0.088 -0.43083,0 -0.0948,-0.087 -0.37955,0.46418 -0.37955,0.46418 l -0.26158,0.34881 -0.54881,0.52312 0.30775,0.1744 0.18978,-0.29237 0.47955,0.0304 0.52062,-0.087 c 0,0 0.31044,-0.46417 0.3821,-0.46417 0.0691,0 0.80782,-0.0283 0.80782,-0.0283 0,0 0.59571,-0.14559 0.66678,-0.087 0.071,0.0587 0.54913,0.17496 0.62319,0.20257 0.0697,0.0283 0.99502,-0.31794 0.99502,-0.31794 0,0 0.19131,-0.37654 0.2385,-0.49243 0.0496,-0.11592 -0.25974,-0.23302 -0.33082,-0.32055 -0.0709,-0.087 0.23563,-0.20301 0.37955,-0.28978 0.1415,-0.087 0.18934,-0.40774 0.26158,-0.55139 0.0687,-0.14362 -0.0967,-0.43851 -0.12054,-0.5231 -0.0226,-0.0902 -0.35702,-0.063 -0.45135,-0.0902 -0.0948,-0.0304 -0.49752,0.0283 -0.49751,0.0283 l 0.0205,-0.57955 c 0,0 -1.11893,-1.85965 -1.09504,-1.94642 0.024,-0.0847 -0.2607,-0.63728 -0.37956,-0.66425 -0.11895,-0.0293 -0.26245,-0.15027 -0.40519,-0.38209 -0.14151,-0.23041 0.18977,-0.52312 0.18977,-0.52312 0,0 0.40303,-0.52082 0.45136,-0.63607 0.0477,-0.11657 -0.0479,-0.4657 -0.11791,-0.49496 -0.0722,-0.0283 -0.90271,0.0304 -0.90271,0.0304 0,0 -0.23752,-0.23389 -0.21544,-0.32055 0.0246,-0.0914 0.26371,-0.11797 0.33596,-0.11797 0.0676,0 0.49742,-1.01198 0.59241,-1.04111 0.0943,-0.0315 -0.0718,-0.2924 -0.0718,-0.2924 z m -3.8519,4.23904 -0.37955,0.14615 -0.21798,0.37708 c 0,0 -0.35201,0.46406 -0.28211,0.37436 0.0737,-0.0837 0.26022,-0.0826 0.21543,0.0619 -0.0499,0.14429 -0.24107,0.28978 -0.24107,0.28978 l -0.28209,0 -0.24365,-0.1743 -0.35389,0.0566 -0.12054,0.2616 0.14618,0.40776 -0.24105,0.29227 0.28723,0.28978 0.28207,0.0847 -0.0436,0.40775 -0.31031,0.1719 -0.40519,0.32304 -0.12052,0.55139 0.35902,0.2616 0.56933,0.14364 0.59496,-0.1744 0.50266,-0.34621 0.14104,-0.17441 0.8309,-0.0641 0.0949,-0.43091 0.19234,-0.43591 0,-1.24891 0.45136,-0.32054 -0.14361,-0.81039 -0.71294,-0.20268 -0.56932,-0.11786 z m 33.76447,9.11942 c 0,0 -0.57023,0.69632 -0.6437,0.82832 -0.0741,0.13189 0.0379,0.56465 -0.14104,0.74112 -0.17677,0.17343 -0.43087,0.35045 -0.53598,0.39492 -0.10928,0.0403 -0.0383,0.47864 0.0691,0.52311 0.11016,0.0446 0.46674,0.21551 0.46674,0.21551 l 1.56948,1.00012 0.9617,1.17704 0.75396,0.74373 c -5.8e-4,0 0.31723,0.38828 0.2103,0.5181 -0.10518,0.13191 -0.78473,0.95902 -0.78474,0.95902 l -1.35664,-0.2205 -0.9258,0 -0.78473,-0.34621 c 0,0 -0.53739,-0.2168 -0.64369,-0.34882 -0.10872,-0.13046 -0.78474,-0.43851 -0.78474,-0.43851 l -1.42844,0.39502 -1.10787,0.39231 -0.38981,0.43341 -1.32073,-0.38981 -0.78473,-0.47961 -0.42829,-0.56672 0.39237,0 -0.14105,-0.69752 0.0691,-0.47701 0.35649,-0.26411 0.2513,-1.26174 0.4283,-0.218 0.10518,-0.65142 c 0,0 0.35862,-0.39514 0.46674,-0.52572 0.10684,-0.12907 0.46418,-0.74113 0.46418,-0.74113 l 0.85398,0.43602 c 0,0 0.89098,0.13243 0.74884,0.17692 -0.14506,0.0425 -0.57188,0.65391 -0.57188,0.65391 0,0 0.32177,0.21539 0.4693,0.34881 0.13913,0.13048 0.46205,0.34458 0.3898,0.60782 -0.0722,0.26019 0.536,0.2179 0.536,0.21801 l 0.21284,-0.43602 0.99761,-0.30261 0.35647,-0.22051 -0.57189,-0.2155 c 0,0 -0.49799,-0.22007 -0.42571,-0.35132 0.0722,-0.13189 0.53598,-1.00273 0.53598,-1.00273 0,0 1.17652,-0.4334 1.28226,-0.4334 0.10452,0 0.82321,-0.1743 0.82321,-0.1743 z m 9.22458,0.11027 c 0.0458,-0.0114 0.0869,0.0114 0.12303,0.0641 0.14099,0.2166 1.0335,0.56683 1.0335,0.56683 0,0 0.32347,0.0869 0.28467,0.259 -0.0346,0.17712 -0.32058,1.31044 -0.32058,1.31044 0,0 -0.63929,-0.21822 -0.71037,-0.1744 -0.0691,0.0413 -0.57048,0.25998 -0.46418,0.60781 0.10618,0.34848 -0.3911,0.13092 -0.35646,0.3051 0.0338,0.17278 0.10739,0.43569 0.21541,0.52322 0.10751,0.087 0.70991,0.4768 0.78219,0.73852 0.0696,0.26324 1.0694,1.04895 1.0694,1.04895 0,0 0.10762,0.0847 0.0719,0.2615 -0.0335,0.17353 -0.10695,1.08743 0,1.08743 0.10684,0 0.35649,-0.0435 0.35649,-0.0435 0,0 0.32332,-0.82615 0.43083,-0.73862 0.10618,0.0859 0.53424,0.47745 0.64114,0.78223 0.10452,0.30478 0.32034,0.60749 0.21285,0.69491 -0.10927,0.0859 -0.60668,0.0435 -0.74884,0.0435 -0.14031,0 -0.39311,-0.21758 -0.46418,-0.13081 -0.0733,0.0869 -0.21353,0.30652 -0.10772,0.56682 0.1075,0.2639 0.32271,0.65403 0.43084,0.74374 0.10507,0.0859 0.21224,0.0392 0.53598,0.39229 0.3207,0.3485 0.42687,0.51997 0.32055,0.91304 -0.1075,0.39144 -0.0365,0.74025 0,0.86932 0.0351,0.13048 0.10662,0.43623 0.17953,0.56672 0.0691,0.13122 0.0691,0.30259 0.0691,0.30259 l -1.03351,0.21801 -0.89501,0.13081 c 0,0 -0.78466,-0.39144 -0.81809,-0.56422 -0.0387,-0.17353 -0.21559,-0.56627 -0.32312,-0.4795 -0.10617,0.088 -0.46301,0.13264 -0.56933,0.0903 -0.10618,-0.0446 -0.50264,-0.43613 -0.50264,-0.61043 0,-0.17278 -0.10805,-0.56466 0.0718,-0.74113 0.18037,-0.17353 0.53645,-0.47614 0.46416,-0.6103 -0.0687,-0.12907 -0.10773,-0.69296 -0.10773,-0.78473 0,-0.088 -7.7e-4,-0.17354 0.21543,-0.21802 l 0.21542,-0.0435 c 0,0 0.069,-0.25858 -0.0385,-0.38981 -0.10618,-0.13114 -0.74957,-0.6985 -0.82064,-0.82833 -0.0668,-0.12961 -0.85539,-1.04481 -0.9617,-1.17964 -0.10562,-0.12765 -0.57189,-0.5181 -0.57189,-0.5181 l -0.24876,-0.65643 0.21286,-0.82583 -0.64113,-0.17439 -0.14105,-0.56423 0,-0.13069 0.67448,-0.95663 c 0,0 0.46619,-0.3062 0.57187,-0.22301 0.10684,0.0902 0.35631,-0.25933 0.39751,-0.38981 0.0317,-0.13341 0.70885,-0.69807 0.85399,-0.78484 0.10606,-0.0641 0.27264,-0.30324 0.41031,-0.32565 z m -28.20973,1.24119 c -0.0365,0.12819 0.17856,0.30607 0.32315,0.69751 0.14046,0.39373 0.71306,1.04439 0.78472,1.30535 0.0703,0.2603 0.8579,1.00533 1.0335,1.08993 0.18153,0.0859 0.28536,0.34968 0.64371,0.52323 0.35834,0.17494 0.32188,0.25736 0.78473,0.52049 0.46167,0.26183 0.53654,0.35209 0.60523,0.47962 0.0741,0.13266 0.35488,0.0903 0.4642,0.30772 0.10617,0.21648 0.2513,0.25975 0.2513,0.47701 0,0.21659 0.14476,0.2179 0.0691,0.65391 -0.0696,0.43526 -0.17746,0.56465 -0.14105,0.65142 0.0359,0.0892 0.67812,1.70287 0.92834,1.70287 0.24908,0 0.99681,0.3487 0.88989,0.86931 -0.10617,0.52203 0.46419,1.21813 0.46419,1.21813 0,0 0.47814,0.038 0.80782,0.10552 0.0135,-0.30403 -0.0398,-0.79257 0.23081,-0.97708 0.31773,-0.21802 0.78262,-0.43634 0.71037,-0.65142 -0.073,-0.21725 -0.1439,-0.61239 -0.42828,-0.87193 -0.28188,-0.2602 -0.57003,-0.39481 -0.64113,-0.82572 -0.0697,-0.43666 -0.17951,-1.00664 0.14106,-0.83093 0.32071,0.17278 0.60568,1.00611 0.75139,0.43602 0.14032,-0.56508 0.49722,-0.95957 0.74628,-0.82833 0.25261,0.13049 0.71543,0.34893 0.6796,0.52312 -0.0365,0.1743 0.32057,1.56944 0.32057,1.56944 0,0 0.14421,0.13299 0.21541,0.78483 0.071,0.65175 0.53407,0.82572 0.46418,1.04373 -0.0722,0.21573 -0.28868,0.34698 0.28467,0.43591 0.56797,0.088 1.10788,0.21563 1.10788,0.38981 0,0.17506 0.46173,0.26661 0.5334,0.39492 0.0696,0.13124 0.4996,0.39122 0.57189,0.1308 0.071,-0.25879 0.21364,-0.78506 0.32056,-0.69753 0.10684,0.0902 0.99971,0.088 1.07199,0.43852 0.0741,0.34338 0.677,0.34338 0.677,0.43603 0,0.0837 0.536,-0.21801 0.536,-0.21801 0,0 0.74731,-0.6973 0.96171,-0.56683 0.2132,0.13059 0.81992,-0.48189 0.74883,0.0847 -0.0697,0.56651 0.3946,1.09168 0.21542,1.65666 -0.17797,0.56726 -0.17687,1.30478 -0.42827,1.87204 -0.25087,0.56368 -0.35861,0.87041 -0.53598,1.22335 -0.17919,0.34416 -0.17992,0.82387 -0.4642,1.04101 -0.28489,0.21954 -0.71146,0.52247 -0.9617,0.30533 -0.24785,-0.21877 -1.24927,-0.17202 -1.35917,-0.12864 -0.10563,0.0435 -1.31531,-0.0457 -1.45922,0.25639 -0.14202,0.3062 -1.06806,0.0893 -1.21557,0 -0.142,-0.0859 -1.88897,-0.95869 -2.03111,-1.00012 -0.14203,-0.0435 -1.03831,-0.52094 -1.18224,-0.6514 -0.14201,-0.13202 -1.03223,-0.2651 -1.06685,-0.39493 -0.0365,-0.13134 0.0709,-0.30283 -0.0743,-0.259 -0.1398,0.0413 -1.17601,0.43395 -1.31816,0.5616 -0.14507,0.13549 -0.46162,0.48462 -0.46162,0.48462 0,0 -0.43333,0.52159 -0.39748,0.91303 0.0383,0.3923 0.42935,0.69567 0.28721,0.91303 -0.142,0.21714 -0.64113,0.47951 -0.64113,0.47951 0,0 -0.53737,-0.60814 -0.71293,-0.69503 -0.1786,-0.088 -1.85415,-0.3923 -1.85415,-0.3923 l -0.67961,-0.95913 c 0,0 -1.06959,-0.8717 -1.17711,-0.91563 -0.10805,-0.0435 -1.28655,0 -1.46691,-0.17169 -0.1792,-0.17713 -0.74921,-1.09092 -1.03349,-1.04634 -0.28606,0.0435 -0.1762,-0.52355 -0.0691,-0.61031 0.10618,-0.087 0.42759,-0.82604 0.39237,-0.95652 -0.0369,-0.13201 0.17639,-0.87008 -0.17952,-1.08733 -0.35656,-0.22313 -0.10772,-0.96424 -0.10772,-0.96424 0,0 0.35813,-0.087 0.21541,-0.087 -0.14268,0 -0.67929,0.0457 -0.82319,-0.1719 -0.14033,-0.2179 -0.17946,-0.30401 -0.31802,-0.2179 -0.14574,0.088 -1.03805,0.26172 -1.14376,0.2179 -0.10817,-0.0435 -0.96258,0.0869 -1.10531,0.0869 -0.14203,0 0.0367,0.0446 -0.14105,0 -0.181,-0.0435 -0.89628,0.34925 -0.93091,0.5206 -0.0327,0.17431 -0.74588,-0.0402 -0.854,0 -0.10861,0.0435 -1.14378,0.0435 -1.14378,0.0435 l -1.7131,0.34881 c 0,0 -1.14186,0.70078 -1.17711,0.91804 -0.0359,0.21799 -0.39379,0.56681 -0.50008,0.6514 -0.10562,0.088 -0.74789,0 -0.78731,-0.1283 -0.0335,-0.13047 -1.17711,0.0435 -1.17711,0.0435 0,0 -0.46249,-0.30641 -0.60523,-0.17442 -0.14201,0.13059 -0.14105,-0.56671 -0.14105,-0.56671 l 0.17694,-0.518 0.64115,-0.52571 1.5387,-0.35133 0.74884,-0.60782 0.46161,-0.21799 0.28468,-0.91293 c 0,0 0.53592,-0.13145 0.50008,-0.26422 -0.0351,-0.13048 -0.17695,-0.73852 -0.17695,-0.73852 l 1.03349,-1.95925 1.46178,-0.87194 0.25132,-0.61041 c 0,0 -0.14097,-0.78277 -0.0359,-0.91553 0.10617,-0.13114 1.0694,-0.39492 1.0694,-0.39492 l 1.21556,0.47962 c 0,0 0.64005,-0.52027 0.7822,-0.6078 0.14201,-0.088 0.8232,-0.56684 0.8232,-0.56684 0,0 0.0696,-0.38915 0.21286,-0.3462 0.14269,0.0435 0.74778,-0.13048 0.82064,0.21801 0.071,0.34859 0.6078,1.43614 0.6078,1.43614 l 0.81809,1.04633 0.7873,0.74113 0.96425,0.43341 c 0,0 0.57071,0.61021 0.67705,0.65391 0.10695,0.0425 0.64113,0.78733 0.64113,0.78733 l 0.28465,0.60521 c 0,0 -0.17786,0.48135 -0.32058,0.70013 -0.14201,0.21508 -0.56948,0.78515 -0.67701,0.73851 -0.10751,-0.0403 -0.93094,-0.2154 -0.93094,-0.2154 l -0.88987,0.13082 c 0,0 -0.14132,0.26225 0.10773,0.4795 0.24965,0.21737 0.53372,0.17278 0.78219,0.3462 0.25379,0.17355 0.895,0.52573 0.895,0.52573 0,0 0.43085,0.0826 0.43085,0.2129 0,0.13113 0.14106,-0.34741 0.10518,-0.65142 -0.0354,-0.30402 -0.0732,-0.69394 0.17696,-0.78212 0.25142,-0.087 0.64113,0 0.64113,-0.13342 0,-0.12971 0.11027,-0.3051 0.11027,-0.3051 l 0.32056,-0.477 -0.0359,-0.30261 0.32313,-0.31032 c 0,0 -0.178,-0.25606 -0.32313,-0.47701 -0.14099,-0.21865 -0.28543,-0.34871 -0.1821,-0.56671 0.10928,-0.2166 0.46667,-0.52377 0.64883,-0.34881 0.17737,0.17353 0.71035,0.26019 0.67448,0.4796 -0.0337,0.21574 -0.001,0.52008 0.0718,0.34871 0.0685,-0.17571 0.036,-0.87192 0.036,-0.87192 0,0 -0.28577,-0.4768 -0.536,-0.52061 -0.24727,-0.0457 -0.89516,-0.43635 -1.07196,-0.52312 -0.17735,-0.087 -0.49751,-0.30521 -0.49752,-0.30521 0,0 0.14143,-0.47712 -0.0691,-0.4334 -0.21619,0.0435 -0.85655,-0.0902 -0.85655,-0.21791 0,-0.13341 -0.64416,-0.74438 -0.67702,-0.87193 -0.0359,-0.13341 -0.6078,-1.09254 -0.6078,-1.09254 0,0 -0.32244,-0.39002 -0.35647,-0.52061 -0.0369,-0.13113 -0.072,-0.35045 -0.14362,-0.69752 -0.0735,-0.34849 0.71227,-1.21966 0.67704,-1.08993 z m -78.65127,26.39637 c 0,-0.0903 -1.21558,1.17453 -1.21559,1.17453 l 0,0.13135 c 0,0 0.10574,0.60727 0.14619,0.73851 0.0335,0.13004 0.81881,-0.69665 0.88987,-1.04372 0.071,-0.34719 0.64261,-0.4383 0.78477,-0.52573 0.14506,-0.0837 0.21311,0.35142 0.35645,0.35142 0.14455,0 0.78731,0.26152 0.78731,0.26152 l 1.28226,0.5231 0.50007,0.56422 c 0,0 0.21286,1.38982 0.21286,1.56694 0,0.17583 0.96427,0.0837 0.96427,0.0837 l 1.89005,-0.21279 c -5.9e-4,-7.5e-4 0.61012,-0.43808 0.5719,-0.56933 -0.033,-0.12874 -0.57168,-0.3437 -0.85655,-0.3437 -0.2855,0 -1.3207,-1.22303 -1.38998,-1.48474 -0.0741,-0.26183 -2.39013,-0.95664 -2.39013,-0.95664 0,0 -2.53375,-0.17364 -2.53375,-0.25899 z m 8.1321,3.5262 c -0.2831,0 0,0.39241 0,0.39241 l -0.10518,1.26174 -1.17711,0 -0.0359,0.13124 c 0,0 -0.32312,0.13004 -0.32312,0.39231 10e-4,0.26107 0.42998,0.17484 0.61036,0.2616 0.17617,0.087 0.46068,-0.0435 0.60521,-0.0435 0.14457,0 0.6078,-0.13125 0.6078,-0.13125 0,0 0.14105,0.39209 0.14105,0.52321 0,0.12864 0.74885,-0.0456 0.74885,-0.177 0,-0.13125 0.17951,-0.47701 0.17951,-0.47701 l 0.88989,-0.21792 c 0,0 1.21443,0.0435 1.32072,0.0435 0.10751,0 0.18026,-0.25954 -0.0359,-0.73862 -0.21203,-0.48038 -0.82154,-0.57139 -0.96427,-0.92064 -0.14267,-0.34555 -0.8184,-0.12472 -0.99759,0 -0.17796,0.132 -1.1771,-0.29999 -1.46434,-0.29999 z m 100.90618,37.13657 c -0.0985,0.0392 -0.25901,0.26921 -0.25901,0.26921 0,0 -0.76243,1.04687 -0.80783,1.22336 -0.0504,0.17135 -0.66571,1.10058 -0.76423,1.38992 -0.0954,0.29021 -0.85399,0.92836 -0.85399,0.92836 l -1.37971,0.69752 c 0,0 -0.47491,0.0587 -0.33339,0.29499 0,0 -0.0948,0.46059 -0.42571,0.98468 -0.33444,0.52127 0,1.21814 0,1.21814 l 0.1872,1.16181 0,1.10526 c 0,0 -0.28611,1.2202 -0.42826,1.27707 -0.14099,0.0587 -0.37846,0.40807 -0.52059,0.98989 -0.14456,0.57956 -0.0974,0.9847 -0.0974,0.9847 0,0 0.0957,0.87073 -0.0487,1.04632 -0.14507,0.17365 0.23956,1.04482 0.38468,1.33872 0.14201,0.28793 0.52315,0.46158 0.52315,0.46158 0,0 0.3305,0.34979 0.47444,0.46417 0.142,0.11689 0.85399,-0.22823 0.85399,-0.22823 0,0 0.52583,-0.2889 0.66677,-0.40774 0.14339,-0.1195 0.2401,-0.1755 0.52318,-0.75646 0.28726,-0.58117 0.0962,-0.40611 0.14103,-0.57955 0.0507,-0.17364 0.33188,-0.93206 0.47701,-1.91837 0.14201,-0.98793 0.19279,-0.92976 0.38212,-1.80027 0.18874,-0.87193 0.42664,-1.1043 0.47443,-1.79769 0.0476,-0.69773 0.0943,-0.99164 0.14105,-1.22585 0.0488,-0.23029 0.52649,-1.09983 0.57189,-1.68231 0.0467,-0.57813 0.046,-0.86964 -0.0462,-1.10004 -0.0942,-0.23563 0.57103,-0.063 0.66422,-0.41036 0.0974,-0.34926 -1.3e-4,-5.5e-4 0.0487,-0.17191 0.0486,-0.17713 0.0974,-1.27761 0.0974,-1.91566 0,-0.63848 -0.52188,-1.63217 -0.57445,-1.80278 -0.0114,-0.0435 -0.039,-0.0511 -0.0719,-0.038 z"
       id="path4166"
       inkscape:connector-curvature="0" />
    <ellipse
       ry="82.88942"
       rx="81.961685"
       cy="150.62941"
       cx="167.70561"
       id="ellipse4172"
       style="display:inline;fill:none;fill-opacity:1;fill-rule:evenodd;stroke:#44aaee;stroke-width:5;stroke-miterlimit:4;stroke-dasharray:none;stroke-opacity:1" />
  </g>
</svg>
