<?xml version="1.0" encoding="UTF-8" standalone="no"?>
<!-- This Source Code Form is subject to the terms of the Mozilla Public
   - License, v. 2.0. If a copy of the MPL was not distributed with this
   - file, You can obtain one at http://mozilla.org/MPL/2.0/. -->

<svg
   xmlns:dc="http://purl.org/dc/elements/1.1/"
   xmlns:cc="http://creativecommons.org/ns#"
   xmlns:rdf="http://www.w3.org/1999/02/22-rdf-syntax-ns#"
   xmlns:svg="http://www.w3.org/2000/svg"
   xmlns="http://www.w3.org/2000/svg"
   xmlns:sodipodi="http://sodipodi.sourceforge.net/DTD/sodipodi-0.dtd"
   xmlns:inkscape="http://www.inkscape.org/namespaces/inkscape"
   viewBox="-45 31 40 40"
   id="svg2"
   version="1.1"
   inkscape:version="0.91 r13725"
   sodipodi:docname="silhouette-40.svg">
  <metadata
     id="metadata10">
    <rdf:RDF>
      <cc:Work
         rdf:about="">
        <dc:format>image/svg+xml</dc:format>
        <dc:type
           rdf:resource="http://purl.org/dc/dcmitype/StillImage" />
      </cc:Work>
    </rdf:RDF>
  </metadata>
  <defs
     id="defs8" />
  <sodipodi:namedview
     pagecolor="#ffffff"
     bordercolor="#666666"
     borderopacity="1"
     objecttolerance="10"
     gridtolerance="10"
     guidetolerance="10"
     inkscape:pageopacity="0"
     inkscape:pageshadow="2"
     inkscape:window-width="1562"
     inkscape:window-height="956"
     id="namedview6"
     showgrid="false"
     inkscape:zoom="16.68772"
     inkscape:cx="19.439973"
     inkscape:cy="19.293507"
     inkscape:window-x="242"
     inkscape:window-y="48"
     inkscape:window-maximized="0"
     inkscape:current-layer="svg2" />
  <g
     id="g4234">
    <path
       id="rect4168"
       d="m -38.05341,39.275982 24.231505,0 0,17.185934 -24.231505,0 z"
       style="fill:#cccccc;fill-opacity:1;fill-rule:evenodd;stroke:#cccccc;stroke-width:0.08968497;stroke-opacity:1" />
    <path
       style="display:inline;opacity:1;fill:#ffffff;fill-opacity:1;fill-rule:nonzero;stroke:none;stroke-width:10;stroke-linecap:butt;stroke-linejoin:miter;stroke-miterlimit:4;stroke-dasharray:none;stroke-dashoffset:0;stroke-opacity:1"
       d="m -37.443293,39.877533 0,16.050779 8.221863,0 a 8.9808822,9.0825367 0 0 1 -0.412815,-1.857413 l -6.004667,0 0,-12.335947 19.48771,0 0,3.48144 a 8.9808822,9.0825367 0 0 1 1.804381,1.41575 l 0,-6.754609 -23.096472,0 z"
       id="path4162"
       inkscape:connector-curvature="0" />
    <path
       id="ellipse4164"
       d="m -11.49955,53.398277 a 8.9808807,9.0825367 0 0 1 -8.980881,9.082537 8.9808807,9.0825367 0 0 1 -8.98088,-9.082537 8.9808807,9.0825367 0 0 1 8.98088,-9.082536 8.9808807,9.0825367 0 0 1 8.980881,9.082536 z"
       style="display:inline;fill:#cccccc;fill-opacity:1;fill-rule:evenodd;stroke:#cccccc;stroke-width:0.45944476;stroke-miterlimit:4;stroke-dasharray:none;stroke-opacity:1" />
    <path
       style="display:inline;fill:#ffffff;fill-opacity:1"
       d="m -20.061243,45.611267 -0.906804,0.0385 -0.101444,0.06688 -0.313319,0 -0.437806,0.04777 c 0,0 -0.414312,0.06669 -0.437806,0.08571 -0.0233,0.01925 0.04693,0.04777 0.04693,0.04777 l -0.0079,0.06688 -0.508336,0.07643 -0.03119,0.06688 c 0,0 0.05459,0.06656 0.06238,0.07615 0.0076,0.0095 0.218901,0.06688 0.218902,0.06688 l 0.250377,0.03821 c 0,0 0.140941,0.07646 0.164107,0.104823 0.02369,0.02859 0.01613,0.114996 0.0082,0.162688 -0.0081,0.04778 -0.03145,0.0571 -0.06266,0.114378 -0.03141,0.05744 0.06266,0.02865 0.06266,0.02865 l 0.109311,0.0666 c 0,0 -0.03128,-8.3e-5 -0.0784,0.0099 -0.04712,0.0095 -0.109311,0.02838 -0.109311,0.02838 l -0.0079,0.105382 0.156518,-0.03822 -0.01602,0.0666 -0.10931,0.02867 -0.109313,0.16213 -0.0079,0.305458 0.02332,0.25767 0.06266,0.210192 0.101724,0.01911 0.11746,0.08599 0.15652,-0.0099 0.156239,-0.257683 0.164107,-0.190796 0.04693,-0.105094 0.0784,-0.05705 0.171694,-0.04776 0.219184,-0.05733 c 0,0 0.203014,-0.162428 0.226772,-0.181526 0.02323,-0.01902 0.586175,-0.22873 0.586175,-0.22873 l 0.125329,0.0095 c 0,0 0.03127,-0.191366 0.0079,-0.210466 -0.02375,-0.01901 0.09386,-0.133476 0.09386,-0.133476 0,0 0.171989,-0.09557 0.179844,-0.12392 0.0078,-0.02884 -0.04693,-0.01967 -0.04693,-0.01967 l 0.01545,-0.143031 0.109592,-0.04749 c 0,0 -0.06222,-0.114895 -0.07812,-0.172254 -0.01545,-0.05672 0.187711,-0.08571 0.187711,-0.08571 l 0.359685,-0.200351 -0.429935,0.05732 -0.01574,-0.0666 -0.453823,-0.124484 z m -2.657745,0.07166 c -0.07363,0.0015 -0.13998,0.0046 -0.158208,0.0079 -0.03651,0.0064 -0.245361,0.07648 -0.333836,0.07025 -0.08874,-0.0065 -0.375301,0.04425 -0.390876,0.03793 -0.01584,-0.0064 -0.130178,-0.01265 -0.119708,-0.01265 0.01016,0 -0.151552,0.159106 -0.177596,0.114368 -0.02598,-0.0445 1.09e-4,-0.07647 -0.02585,-0.04468 -0.02598,0.0318 -0.02079,0.178437 -0.02079,0.178437 0.03121,0.02556 0.09879,0.11454 0.145843,0.07643 0.04666,-0.03827 0.07287,-0.01909 0.08852,-0.01293 0.01543,0.0065 -0.0727,0.08936 -0.125047,0.08936 -0.05209,0 -0.219182,0.07615 -0.219184,0.07615 0,0 -0.07288,-0.08276 -0.08851,-0.08907 -0.01556,-0.0064 -0.104069,-0.01265 -0.119711,-0.01265 -0.01556,0 -0.0367,-0.01898 -0.04187,0.03822 -0.0052,0.05719 0.0054,0.146166 -0.04665,0.133465 -0.05222,-0.01277 -0.06768,0.01267 -0.09386,-0.0062 -0.02604,-0.01917 0.03655,-0.114511 -0.03681,-0.120824 -0.07297,-0.0063 -0.114554,-0.07015 -0.156239,0.03147 -0.04165,0.101432 -0.06696,0.101837 -0.02585,0.121103 0.04153,0.01861 0.06762,0.02538 0.15624,0.03176 0.08867,0.0061 0.09917,-0.0063 0.140783,0.01264 0.04136,0.01886 0.07809,0.05139 0.09385,0.0062 0.01556,-0.04425 0.03641,-0.04441 0.05199,-0.06997 0.01556,-0.0254 1.1e-4,-0.0508 0.02613,-0.0635 0.02604,-0.01262 0.07306,0.05115 0.07306,0.05115 0,0 -0.05752,0.04451 -0.03147,0.05058 0.02598,0.0067 0.09902,0.0256 0.135726,0.03175 0.03652,0.0067 0.0052,0.01911 0.06772,0.02614 0.06243,0.006 0.08856,-0.007 0.166637,-0.007 0.07827,0 0.12548,-0.04422 0.151461,-0.03175 0.02598,0.01262 0.114523,0.01261 0.140501,0.0064 0.02605,-0.0064 0.08891,-0.07615 0.06266,-0.07615 -0.02624,0 -0.125295,-0.03228 -0.166917,-0.03849 -0.04162,-0.0063 -0.172277,-0.01257 -0.203165,0.0064 -0.03154,0.01917 -0.06799,0.03197 -0.0888,0.01911 -0.02081,-0.0127 0.08902,-0.114346 0.161857,-0.101722 0.0731,0.0127 0.182453,-0.01276 0.218905,-0.0065 0.03645,0.0063 0.125327,0.02557 0.125327,0.02557 0,0 0.02068,-0.01275 0.02585,-0.03175 0.0053,-0.01909 0.0104,-0.03822 0.0104,-0.03822 l 0.05227,0.05732 c 0,0 0.343848,-0.171694 0.359687,-0.203727 0.01563,-0.03212 0.234375,-0.114814 0.266112,-0.108187 0.03121,0.0061 0.244788,-0.108372 0.281566,-0.08936 0.03599,0.01909 0.229019,-0.05676 0.229019,-0.05676 0,0 0.140975,-0.0385 0.172255,-0.0385 0.03135,0 0.04685,-0.04425 0,-0.03794 -0.04705,0.0063 -0.43836,0.0063 -0.531942,0 -0.04705,-0.0032 -0.12785,-0.0032 -0.201479,-0.0017 z m -1.393786,0.255993 c -0.02605,0.0063 -0.109592,0.05676 -0.109592,0.05676 -0.0053,0.01933 0.05199,0.134114 0.07306,0.140503 0.02055,0.0064 0.08328,0.0065 0.08852,-0.01265 0.0052,-0.0191 -0.0051,-0.153148 -0.0051,-0.153148 0,0 -0.02101,-0.03778 -0.04693,-0.03147 z m -0.411956,0.02529 -0.04693,0.01264 c -0.01027,0.0191 -0.03103,0.06402 -0.01546,0.07025 0.01556,0.0062 0.140602,0.05085 0.156241,0.05732 0.01556,0.0065 0.06269,0.01896 0.08317,0.01265 0.02081,-0.0063 0.10443,-0.05698 0.07334,-0.07615 -0.03135,-0.01902 -0.130303,-0.04502 -0.151179,-0.05789 -0.02081,-0.01262 -0.0992,-0.01883 -0.0992,-0.01883 z m -0.43415,0.0096 c -0.0073,-0.0021 -0.01417,-0.0016 -0.01939,0.0031 -0.02081,0.01909 -0.130667,0.07643 -0.130667,0.07643 l -0.0051,0.04468 -0.08542,0.04468 c 0,0 0.09055,0.02535 0.111558,0.01265 0.02121,-0.01262 0.09414,-0.05086 0.09414,-0.05086 l 0.0621,-0.06351 0.02108,-0.03231 c 0,0 -0.02635,-0.02851 -0.04833,-0.03485 z m -0.49935,0.130666 c -0.03095,0.0065 -0.286622,0.07643 -0.286622,0.07643 0,0 -0.109361,0.07621 -0.130106,0.05704 -0.0031,-0.0028 -0.0092,-0.0028 -0.01433,-0.0037 a 8.9808826,9.0825371 0 0 0 -0.05367,0.03907 l 0.02108,0.01545 c 0.01556,-0.0191 0.171976,0.01911 0.171976,0.01911 0,0 0.02078,0.108421 0.06266,0.0767 0.04162,-0.03211 0.161577,0.07642 0.161577,0.0888 0,0.01311 0.04159,0.0068 0.04159,0.0068 l 0.182653,-0.07672 0.102004,-0.01883 c 0,0 0.09605,-0.0068 0.11156,0.0062 0.01543,0.01256 0.09414,-0.03175 0.09414,-0.03175 l 0.03119,-0.06379 -0.068,-0.02557 0.01602,-0.06351 c 0,0 -0.021,-0.03803 -0.06772,0.0065 -0.04725,0.04458 -0.177536,0.133222 -0.167197,0.114374 0.01048,-0.01917 -0.05201,0.0062 -0.07812,-0.03204 -0.02624,-0.03803 -0.06238,-0.0444 -0.06238,-0.0444 0,0 -0.07341,-0.03181 -0.09919,-0.01911 -0.02618,0.0127 0.04693,-0.06351 0.04693,-0.06351 0,0 0.01551,-0.06998 -0.01602,-0.06351 z m -0.437522,0.305172 c -0.02812,0.006 -0.172277,0.0016 -0.20401,0 a 8.9808826,9.0825371 0 0 0 -0.415046,0.368678 c 0.04131,0.0095 0.101385,0.0098 0.107907,-0.0062 0.01095,-0.02572 0.104584,-0.0064 0.125329,-0.0444 0.02081,-0.03826 0.124861,-0.114699 0.140501,-0.101998 0.01564,0.01288 -0.03128,0.07614 -0.04693,0.08261 -0.01563,0.0063 0.0526,0.01275 -0.01545,0.07672 -0.0676,0.0635 -0.05199,0.120822 -0.05199,0.120822 0,0 -0.05743,0.03189 -0.01574,0.04468 0.04169,0.01278 0.11971,0.05704 0.11971,0.05704 0,0 0.0053,0.04455 0.0053,0.05733 0,0.01269 0.02611,0.05097 0.08318,0.0064 0.05772,-0.04459 0.172353,-0.09545 0.187992,-0.07643 0.01556,0.01901 0.05225,-0.0063 0.104534,-0.01265 0.0519,-0.0062 0.09386,-0.02557 0.09386,-0.02557 l 0.06744,0.01291 c 0.03135,0.01902 0.05752,-0.02538 0.109874,0.01266 0.05183,0.03819 0.124764,0.03793 0.124764,0.03793 0,0 0.07329,-0.06984 0.0888,-0.07615 0.01569,-0.0063 0.04683,-0.01272 0.03119,-0.05732 -0.01556,-0.04467 -0.07296,-0.114472 -0.05732,-0.127577 0.01556,-0.01262 0.0521,-0.02533 0.04693,-0.146118 -0.0052,-0.120798 0.01031,-0.101497 -0.01573,-0.09527 -0.02598,0.0063 -0.08852,0.0444 -0.08852,0.0444 l -0.02079,-0.0062 c -0.01032,0.03811 -0.05727,0.06354 -0.068,0.101722 -0.01032,0.03811 -0.04131,0.0571 -0.04131,0.02529 0,-0.0318 -0.03659,-0.0381 -0.04215,-0.0635 -0.0048,-0.02548 -0.05186,-0.01924 -0.07784,-0.01293 -0.02611,0.0063 -0.09922,-0.05724 -0.125327,-0.03175 -0.02578,0.02548 -0.05225,-0.0124 -0.07306,-0.06968 -0.02061,-0.0572 -0.04684,-0.10225 -0.07812,-0.0961 z m 1.252721,0.05058 c -0.0028,-0.0012 -0.0066,-0.0012 -0.0118,0.0012 -0.04175,0.01246 -0.130635,0 -0.172258,0.01884 -0.04168,0.01909 -0.09369,-0.02508 -0.08851,0.02557 0.005,0.05089 0,0.09526 0,0.09526 l -0.05733,-0.01264 c 0,0 -0.0052,-0.05086 -0.02079,-0.05086 -0.01616,0 -0.06266,0.06997 -0.06266,0.06997 0,0 0.06799,0.03183 0.0784,0.05732 0.01041,0.02549 0.03625,0.0571 0.03625,0.07643 0,0.01878 0.171974,-0.06379 0.171974,-0.06379 l 0.09414,-0.05732 c 0,0 0.0048,0.01261 0.0104,-0.01911 0.0052,-0.0318 -0.01041,-0.05703 0,-0.0635 0.009,-0.0055 0.04204,-0.06961 0.0222,-0.07699 z m 0.296462,0.0012 c 0,0 -0.152191,0.0045 -0.160177,0.02388 -0.0078,0.0191 -0.109309,0.147809 -0.109309,0.147809 l -0.06266,0.05733 -0.207379,0.157924 -0.0079,0.109588 -0.08571,-0.01911 -0.06267,-0.01433 -0.156238,0.07616 0,0.105095 -0.285783,0.01939 c 0,0 -0.136569,-0.0242 -0.136569,-0.04776 0,-0.02413 -0.05074,-0.07165 -0.06632,-0.07165 -0.0159,0 -0.191926,0.06659 -0.191926,0.06659 l -0.0079,0.06689 -0.203167,-0.01406 c 0,0 -0.168035,0.03767 -0.164107,0.01882 0.0039,-0.01902 -0.0902,-0.0095 -0.0902,-0.0095 l 0.140781,-0.07643 -0.09751,-0.05733 -0.176191,-0.03316 -0.125047,-0.04776 -0.07531,0.01264 a 8.9808826,9.0825371 0 0 0 -2.398658,4.263385 l 0.05761,0.04355 0.04299,0.09555 0.0236,0.391433 0.06997,0.176461 -0.07784,0.06689 0.08964,0.152574 0.03541,0.005 0.07053,0.100032 -0.02754,0.133763 0.07419,0.07138 0.07053,0.133751 0.0118,0.06687 0.0666,-0.0812 -0.0666,-0.16693 c 0,0 -0.04692,-0.12429 -0.04299,-0.152575 0.0039,-0.02876 -0.06238,-0.243636 -0.06238,-0.243636 0,0 -0.06284,-0.162533 -0.0548,-0.176747 0.0076,-0.01445 -0.04721,-0.109588 -0.04721,-0.109588 l 0.02754,-0.195586 0.113244,0.02867 c 0,0 0.01967,0.18093 0.01967,0.200351 0,0.01901 0.02726,0.133761 0.02726,0.133761 l 0.148651,0.252618 -0.02332,0.128984 0.285222,0.415047 -0.0039,0.167194 -0.043,0.08092 0.02332,0.114924 0.238854,0.214695 0.03878,-0.0092 0.07053,0.08597 0.25796,0.157649 0.128982,0.03821 0.152867,-0.0576 0.09751,0.0576 0.148651,0.209929 0.152587,0.04748 0.155958,0.06716 0.07475,0 0.01967,0.109599 c 0,0 0.07034,0.109887 0.08599,0.124197 0.01551,0.01424 0.0039,0.138525 0.0039,0.138525 l 0.06632,0.04243 0.07812,0.100617 0.05086,0.05732 0.05508,0.07644 0.03485,-0.02868 0.07053,0.02361 0.101443,0.114925 0.06632,-0.04806 -0.01911,-0.09048 0.0621,-0.07643 0.05508,0 0.05873,0.05732 -0.0039,0.06689 0.07025,0.138254 0.0039,0.386653 -0.06266,0.124206 -0.08599,0.07165 -0.0037,0.114365 -0.0902,0.04271 -0.03513,0.152872 -0.05479,0.13375 0.0118,0.114366 0.07812,0.086 -0.07053,0.09133 -0.05058,0.09019 0.04665,0.181252 c 0,0 0.02332,0.09087 0.02332,0.0812 0,-0.0095 0.07447,0.06238 0.07447,0.06238 l 0.13685,0.333565 0.132633,0.234353 c 0,0 0.193338,0.475071 0.197268,0.478823 0.05831,0.05233 0.483609,0.426568 0.483609,0.426568 l 0.07278,0.464502 0.02108,0.979843 0.06238,0.280439 -0.02613,0.566499 -0.02079,0.114378 c 0,0 0.08346,0.178274 0.08346,0.203996 0,0.02541 0.01546,0.247852 0.01546,0.247852 l 0.05732,0.241945 0.06772,-0.0062 -0.04159,-0.139946 0.05227,0.0062 0.03597,0.222535 0.0053,0.0891 -0.04131,-0.0444 -0.03681,0.0444 -0.02613,0.03821 0.05227,0.05761 -0.01461,0.04918 a 8.9808826,9.0825371 0 0 0 0.74663,0.385534 c 0.0024,-0.0056 0.0047,-0.01167 0.0081,-0.01489 0.02107,-0.01901 0.06266,-0.11465 0.06266,-0.11465 l -0.06266,-0.03821 -0.104253,-0.12702 0.0104,-0.146687 0.06266,-0.0444 c 0,0 0.0052,-0.08298 -0.0051,-0.10201 -0.01067,-0.01884 0.01555,-0.114591 0.03119,-0.120822 0.01577,-0.0064 0.05704,-0.0829 0.05704,-0.0829 l -0.0725,0 -0.04187,-0.01881 -0.05227,-0.101737 0,-0.07671 0.08851,0.03205 0.08374,-0.0194 0.04693,-0.08261 c 0,0 -0.01562,-0.05067 -0.02079,-0.0697 -0.0052,-0.019 0.01029,-0.102069 0.02585,-0.108456 0.01556,-0.0061 0.109592,0.0064 0.109592,0.0064 l 0.177313,-0.05705 c 0,0 0.06783,-0.14657 0.06266,-0.171971 -0.0052,-0.02541 -0.0053,-0.108193 -0.0053,-0.108193 0,0 3.3e-5,-0.05727 -0.04159,-0.06406 -0.04195,-0.0062 -0.04186,-0.02491 -0.05227,-0.07644 -0.01062,-0.05073 -0.04187,-0.107909 -0.04187,-0.107909 l -0.05199,0.01266 0.04693,-0.05704 0.104251,0.09526 0.156241,0.03202 0.119989,-0.146676 0.08346,-0.248126 0.03653,-0.184613 0.07812,0 0.08318,-0.184623 0.03147,-0.171696 -0.02585,-0.210181 0.03625,-0.07615 0.271169,-0.222846 0.203449,-0.08289 0.068,-0.06379 c 0,0 0.103972,-0.171709 0.103972,-0.190806 0,-0.01909 0.04187,-0.267227 0.04187,-0.267227 0,0 0.04667,-0.292626 0.04131,-0.31163 -0.005,-0.01941 0.0106,-0.273778 0,-0.280165 -0.01047,-0.0062 0.0053,-0.07643 0.0053,-0.07643 l 0.198109,-0.343669 0.09385,-0.261041 c 0,0 0.06814,-0.133668 0.05761,-0.159055 -0.0106,-0.0255 -0.06772,-0.241659 -0.06772,-0.241659 0,0 -0.125236,-0.03178 -0.130667,-0.05086 -0.0052,-0.01903 -0.218772,-0.248055 -0.22368,-0.24167 -0.0056,0.0062 -0.089,-0.102451 -0.09948,-0.07025 -0.0102,0.03179 -0.171973,0.03204 -0.171973,0.03204 l -0.171975,-0.05142 c 0,0 -0.07283,0.06401 -0.05733,0.03821 0.01563,-0.0254 0.0052,-0.177952 0,-0.152301 -0.0052,0.02516 -0.260772,-0.133761 -0.260772,-0.133761 l -0.0888,0.09527 0,-0.120836 -0.135165,-0.101723 0.01574,-0.133761 -0.06295,-0.0635 c 0,0 -0.01019,0.01879 -0.01545,0.0062 -0.0052,-0.01267 -0.04187,-0.267227 -0.04187,-0.267227 l -0.198108,-0.197263 -0.239698,-0.01295 -0.219185,-0.146677 -0.04693,-0.133477 c 0,0 -0.125046,-0.06961 -0.125046,-0.0888 0,-0.019 -0.0362,-0.0063 -0.04693,-0.01295 -0.01016,-0.0062 -0.0048,-0.06967 -0.0048,-0.06967 l -0.05788,-0.05761 -0.02051,-0.01716 -0.05114,-0.01881 -0.03119,-0.05313 c 0,0 0.113442,-0.06199 0.101725,-0.05702 -0.01145,0.0044 -0.25403,0.04748 -0.25403,0.04748 l -0.02332,0.05705 -0.113525,-0.07138 -0.191644,-0.01439 c 0,0 -0.136844,-0.06668 -0.132916,-0.0857 0.0041,-0.01917 -0.04299,-0.09076 -0.04299,-0.09076 0,0 -0.03121,0.0908 -0.03906,0.100319 -0.0077,0.0095 -0.105378,0.109589 -0.105378,0.109589 l 0.0073,0.153145 -0.06632,-0.08626 0.04721,-0.08122 0,-0.114364 c 0,-0.01462 0.05845,-0.04776 0.05845,-0.04776 l -0.02332,-0.06182 c 0,0 -0.07025,0.02384 -0.07025,0.03821 0,0.01425 -0.09386,0.08093 -0.09386,0.08093 l -0.113526,0.05227 -0.05086,0 c 0,0 -0.05056,0.100068 -0.06266,0.105096 -0.01157,0.0049 -0.0076,0.09583 -0.0076,0.09583 0,0 -0.12534,0.171315 -0.133198,0.152299 -0.0078,-0.01903 -0.140502,-0.152299 -0.140502,-0.152299 l -0.156801,0.02331 -0.08964,0.05761 -0.109593,-0.09076 -0.08599,-0.162143 0.0082,-0.19108 0.04665,-0.210193 0.01967,-0.138265 -0.117462,-0.105083 c 0,0 -0.238292,0.02391 -0.238292,0.0095 0,-0.0141 -0.129386,0.005 -0.125327,-0.0095 0.0037,-0.01409 0.04693,-0.104883 0.04693,-0.11943 0,-0.01438 0.03147,-0.123919 0.03147,-0.123919 l 0.05086,-0.124195 0.06632,-0.238012 0.03906,-0.08178 -0.195299,-0.01411 -0.117461,0.05703 -0.0666,0.238859 -0.332428,0.109885 -0.08205,-0.07644 c 0,0 -0.0078,0.043 -0.0037,0.0191 0.0037,-0.02379 -0.101722,-0.191069 -0.101722,-0.191069 l -0.05086,-0.233509 c 0,0 0.133172,-0.482481 0.128982,-0.472652 -0.0039,0.0093 0.0042,-0.177034 0.0042,-0.177034 l 0.418135,-0.333838 0.160175,0.02839 0.03906,0.04776 0.09807,-0.01939 0.09779,-0.119154 0.124768,0.01911 0.12111,-0.02837 0.07447,0.100307 0.10931,-0.05226 0.05873,0.07643 0.03541,0.0472 0,0.08148 -0.02754,0.07616 0.02754,0.171982 0.07812,0.13375 0.05086,0.0239 0.06238,-0.209918 -0.0118,-0.195869 -0.02726,-0.157913 0,-0.114366 0.160454,-0.238297 0.207101,-0.181526 0.164107,-0.114652 0.144718,-0.190807 -0.0079,-0.181526 0.06295,-0.01403 0.0621,-0.16214 0.06238,0.0089 0.121673,-0.186029 0.202885,-0.0857 0.125611,-0.02866 0.03906,-0.05227 -0.04693,-0.04777 0.09751,-0.177034 0.309105,-0.147808 0.187712,-0.06688 -0.152586,0.119419 0.03119,0.09049 0.113528,-0.03794 0.08205,-0.06211 0.21497,-0.07137 c 0,0 0.05104,-0.105381 0.04299,-0.08149 -0.0075,0.02381 0.109873,-0.02389 0.109873,-0.02389 l -0.0236,-0.05732 0.0079,-0.07643 -0.06238,0.02894 -0.09442,0.123922 -0.152303,-0.0089 -0.06997,-0.129257 0.06632,-0.109874 c 0,0 0.06625,-0.162128 0.06238,-0.152301 -0.004,0.0093 -0.105376,-0.03849 -0.105376,-0.03849 l -0.152585,0.06659 c -0.01556,0 -0.160317,0.105275 -0.156522,0.09105 0.004,-0.0143 -0.07418,0.05227 -0.07418,0.05227 l 0.199232,-0.195299 0.08233,-0.01461 0.09386,-0.105096 0.449608,0 0.152587,-0.03822 0.203168,-0.133475 0.01601,0.02389 -0.08627,0.100034 -0.105659,0.133761 -0.101724,0.13319 -0.05086,0.08149 0.160456,0.0095 c 0,0 0.124938,0.0038 0.136849,0 0.01563,-0.0048 0.01939,0.0666 0.01939,0.0666 l 0.06632,-0.05704 0.0354,0.109588 0.117461,-0.109588 -0.03541,-0.124207 0.03147,-0.114924 -0.136848,0.0051 0,-0.0621 c 0,0 -0.0508,-0.07153 -0.0548,-0.06211 -0.0041,0.0096 0.07817,-0.08087 0.07418,-0.07137 -0.0038,0.0095 -0.03541,-0.04778 -0.03541,-0.04778 l 0.09442,-0.14359 -0.04693,-0.161857 -0.01602,-0.08093 -0.121116,-0.07165 -0.04299,-0.07194 -0.0548,-0.05227 0.04299,-0.124206 -0.01967,-0.09076 c 0,0 -0.03485,-0.296046 -0.03878,-0.286623 -0.0041,0.0096 -0.164671,0.162702 -0.164671,0.162702 l -0.163824,0.100319 -0.08627,-0.09076 0.0081,-0.119703 0.07419,-0.08571 -0.121394,-0.04776 -0.0079,-0.03822 c 0,0 -0.109456,-0.13363 -0.117178,-0.124207 -0.0078,0.0099 -0.03513,0.04329 -0.03513,0.04329 l -0.258244,-0.02895 -0.08964,0.191081 -0.01967,0.100043 c 0,0 -0.141491,0.172675 -0.158769,0.186019 0.01031,-0.0037 0.07672,0.07672 0.07672,0.07672 l -0.05901,0.171697 -0.222837,0.15735 -0.109312,0.0194 c 0,0 -0.06659,0.29607 -0.06266,0.315001 0.0039,0.01926 -0.08964,0.07165 -0.08964,0.07165 l -0.0666,0.05733 -0.02754,-0.104822 c 0,0 -0.02996,-0.0803 -0.04187,-0.100593 0.01748,0.0088 0.08093,0.01911 0.08093,0.01911 l 0.01208,-0.06716 -0.06294,0.0051 0.02754,-0.109874 0.05873,-0.119142 -0.203445,-0.01911 -0.04637,-0.06688 -0.102004,-0.0191 -0.0082,-0.05283 -0.07025,-0.05227 -0.08627,-0.04778 -0.09358,0.01433 -0.0039,-0.100032 0.02332,-0.09554 -0.09357,-0.01884 c 0,0 0.164101,-0.205439 0.160173,-0.19586 -0.0042,0.0095 0.46113,-0.282118 0.46113,-0.282118 l 0.05508,-0.07109 0.08964,-0.0099 0.195579,-0.109599 0.148652,-0.12392 0.01546,0.0095 -0.112964,0.128698 -0.03147,0.04749 -0.08992,0.05255 0.08233,0.01432 -0.01208,0.05761 0.0902,-0.01938 0.08964,-0.09076 0.07081,0.02894 0.03119,0.04271 0.09779,-0.0048 -0.0039,-0.09076 -0.152303,-0.133476 -0.03569,-0.04271 -0.01546,-0.04805 0.06632,0.01013 0.05508,0.05705 0.05845,-0.07194 0.117461,-0.01882 0.117178,-0.100605 -0.0076,-0.06181 0.08964,-0.104821 -0.05873,-0.07643 0.156518,-0.0048 0.136569,0.0048 c 0,0 0.06662,-0.03785 0.0784,-0.01406 0.01178,0.0238 0.113526,0.114091 0.113526,0.114091 l -0.03906,0.043 -0.160734,0.02416 -0.03906,0.09525 0.117739,0.0194 0.08964,-0.11465 0.09751,-0.0095 0.01574,0.114365 c 0,0 -0.109193,0.0765 -0.124765,0.08121 -0.01563,0.0051 -0.08233,0.04271 -0.08233,0.04271 l -0.0039,0.08627 -0.105659,0.01406 -0.109309,-0.0236 -0.05058,0.0048 -0.08234,0.08092 0.06632,0.07165 c 0,0 0.09795,-0.04787 0.113526,-0.0621 0.01556,-0.0142 0.06647,-0.04287 0.07812,-0.01883 0.01171,0.02381 0.07784,0.09048 0.07784,0.09048 l 0.05536,0.129269 0.05058,0.0191 0.156238,0.06182 c 0,0 0.109593,0.03364 0.109593,0.043 0,0.0095 -0.01123,-0.08122 -0.01123,-0.08122 l -0.08262,-0.119417 c 0,0 -0.0037,-0.03345 0.02332,-0.02417 0.02768,0.0095 0.09414,0.08093 0.09414,0.08093 0.01152,0.0048 0.08992,0.06266 0.08992,0.06266 l 0.03119,-0.105085 0.07025,-0.05255 -0.02698,-0.0621 -0.03934,-0.05227 -0.04299,-0.06209 0.0039,-0.07167 c 0,0 0.01159,-0.0099 0.02333,-0.01911 0.01163,-0.0094 0.04688,-0.04294 0.05479,-0.02416 0.0076,0.0191 0.08627,0.14359 0.08627,0.14359 l 0.07391,0.01882 0.03541,-0.07137 c 0,0 0.09751,-0.01443 0.09751,-0.0095 0,0.0048 0.0079,-0.05732 0.0079,-0.05732 l 0.0902,-0.02839 -0.128979,-0.139087 -0.07053,-0.043 -0.0548,0.01911 -0.05058,-0.07138 0.05451,-0.06181 0.02389,-0.08627 -0.06267,-0.07616 -0.09779,-0.02389 -0.02388,-0.06238 c 0,0 -0.0818,-0.01408 -0.09357,-0.0048 -0.01184,0.0099 -0.07053,-0.08571 -0.07053,-0.08571 l -0.05086,-0.08093 c -0.0079,-0.0049 -0.03501,-0.03874 -0.05058,-0.03372 -0.0159,0.0048 -0.179843,0.0095 -0.179843,0.0095 l -0.03934,0.01433 -0.05058,-0.04778 -0.203447,0.0621 -0.105376,0.100319 c 0,0 -0.0077,-0.05743 0,-0.07165 0.0076,-0.0143 0.08179,-0.06663 0.09357,-0.07614 0.01171,-0.0095 -0.08992,-0.01462 -0.08992,-0.01462 0,0 -0.187793,0.07647 -0.195582,0.09076 -0.0078,0.0142 -0.152583,0.152586 -0.152583,0.152586 l 0.0042,0.114652 0.132915,0.02416 0.05086,0.01406 -0.03541,0.0385 -0.02726,0.07138 -0.08599,0.05732 -0.105657,0.09527 -0.08992,0.04299 -0.01545,-0.07643 0.07812,-0.05705 c 0,0 -0.01575,-0.119299 -0.0236,-0.109873 -0.0078,0.0096 -0.08986,-0.0048 -0.09386,0.0095 -0.0038,0.01439 0.0042,-0.09048 0.0042,-0.09048 l -0.0042,-0.100318 -0.01939,-0.07672 c 0,0 0.0666,-0.06666 0.07812,-0.07138 0.01178,-0.0048 0.136849,-0.01433 0.136849,-0.01433 l 0.199514,-0.138254 -0.164388,-0.0095 0,0 z m 7.621981,0.30826 c -0.0055,0.0095 -0.0888,0.05788 -0.0888,0.05788 l -0.156239,-0.03203 -0.200919,0.05703 -0.203446,0.0607 -0.294213,0.152587 0.10931,0.01264 -0.04721,0.09864 -0.130385,0.11801 -0.0725,0.146128 -0.01067,0.0798 -0.07025,0.09188 c 0,0 -0.04945,-0.03157 -0.05985,-0.04411 -0.01032,-0.01303 -0.182655,0.06013 -0.182655,0.06013 l -0.10397,0.120823 c 0,0 -0.02624,0.06082 -0.03147,0.07672 -0.0055,0.01606 0.0079,0.184623 0.0079,0.184623 0,0 0.06272,-1.3e-5 0.0444,0.0222 -0.01833,0.02212 -0.01574,0.124206 -0.01574,0.124206 l 0.07306,0.06013 c 0,0 0.09618,0.03848 0.109591,0.03512 0.01249,-0.0031 0.05974,-0.04138 0.06773,-0.04776 0.0073,-0.0062 0.06498,-0.07622 0.08317,-0.07334 0.01818,0.0036 0.0651,-0.06035 0.07053,-0.03765 0.0051,0.02228 0.01558,0.101737 0.02585,0.120824 0.01039,0.0191 0.04709,0.05402 0.06266,0.09835 0.0155,0.04465 0.03669,0.08925 0.03119,0.09835 -0.0054,0.0099 -0.04159,0.05423 -0.04159,0.05423 0,0 -0.07792,0.01266 -0.08852,0.02585 -0.01032,0.01256 -0.02362,0.01893 -0.03147,0.01264 -0.0081,-0.0063 0.02615,-0.05128 0.034,-0.0635 0.0079,-0.01302 -0.01818,-0.06381 -0.02866,-0.06069 -0.01062,0.0033 -0.02081,-0.02871 -0.01067,-0.03822 0.01062,-0.0095 0.0081,-0.06997 0.0081,-0.06997 0,0 -0.01588,-0.0095 -0.0236,-0.0062 -0.0078,0.0032 -0.09892,0.04749 -0.09892,0.04749 0,0 -0.04965,0.06353 -0.05227,0.07614 -0.0028,0.01313 -0.02347,0.07977 -0.0101,0.127303 0.01294,0.04801 0.04412,0.124481 0.04412,0.124481 0,0 0.03356,0.02844 0.02079,0.04131 -0.01283,0.0126 -0.03934,0.06042 -0.03934,0.06042 l -0.0621,0.0031 c 0,0 -0.1122,0.01613 -0.1228,0.02221 -0.01027,0.0065 -0.11956,0.04775 -0.11465,0.06069 0.0055,0.0127 -0.0236,0.149775 -0.0236,0.149775 -0.005,0.0032 -0.114617,0.09835 -0.127578,0.09835 -0.01302,0 -0.09386,0.02557 -0.09386,0.02557 0,0 -0.03629,0.117748 -0.03878,0.111279 -0.0026,-0.0064 -0.123082,0.06997 -0.123082,0.06997 0,0 -0.09096,-0.0321 -0.09358,-0.04496 -0.0026,-0.01262 -0.03404,-0.04106 -0.03653,-0.03147 -0.0028,0.0096 0.03119,0.108481 0.03119,0.127568 0,0.01862 0.0054,0.05686 -0.0051,0.0444 -0.01045,-0.01302 -0.06272,-0.03147 -0.07306,-0.03794 -0.01067,-0.0062 -0.0992,-0.0033 -0.0992,-0.0033 l -0.03625,0 c 0,0 -0.04459,0.04788 -0.04721,0.03822 -0.0024,-0.0096 -0.0051,0.04158 -0.0051,0.04158 l 0.02585,0.03148 0.09414,0.04778 0.08852,0.06688 0.034,0.101723 0.03906,0.09554 c 0,0 -0.02607,0.19699 -0.03091,0.20682 -0.0058,0.0094 -0.06042,0.05423 -0.06042,0.05423 l -0.169446,-0.0033 c 0,0 -0.08354,-0.0221 -0.09133,-0.02529 -0.0078,-0.0033 -0.125002,0.0189 -0.127296,0.0062 -0.0026,-0.01288 -0.03934,-0.0095 -0.03934,-0.0095 l -0.01855,-0.02558 -0.04693,0 -0.03906,0.05396 -0.05733,0.0037 0,0.05705 c 0,0 0.02341,0.130616 0.02079,0.121121 -0.0026,-0.0099 -0.01012,0.152574 -0.01012,0.152574 0,0 -0.05641,0.138396 -0.0621,0.14894 0.0013,0.0042 -0.0031,0.093 -0.0031,0.093 l 0.034,0.06689 0.0051,0.07924 c 0,0 -0.02593,0.07319 -0.01546,0.06688 0.01055,-0.0064 0.09381,0.0031 0.0961,-0.0095 0.0026,-0.01262 0.05226,-0.04124 0.05986,-0.0191 0.0077,0.02221 0.03685,-1.3e-5 0.04496,0.03849 0.0073,0.0381 0.03625,0.09202 0.03906,0.101439 0.0026,0.0099 0.02332,0.01911 0.02332,0.01911 l 0.0076,0.02585 -0.01574,0.01601 -0.06491,0.17788 -0.143593,0.124195 -0.08599,0.0666 -0.02332,0.0798 -0.03653,0.05086 -0.0104,0.09864 c 0,0 0.01051,0.123827 0.0051,0.130378 -0.005,0.0063 -0.195296,0.22592 -0.195296,0.22592 l -0.104254,0.02868 -0.05761,0.121109 c 0,0 -0.07814,0.08879 -0.08318,0.105083 -0.0054,0.01566 -0.0444,0.07616 -0.0444,0.07616 0,0 0.0026,0.127124 0,0.108194 -0.0027,-0.0191 -0.112118,0.104809 -0.112118,0.104809 0,0 -0.02068,0.146595 -0.02585,0.153136 -0.0052,0.0061 -0.05743,0.117581 -0.06547,0.114388 -0.0078,-0.0033 -0.01546,0.07629 -0.01546,0.08907 0,0.01265 0.02585,0.05058 0.02585,0.05058 0,0 0.03686,0.08629 0.03934,0.07672 0.0025,-0.0098 0.0025,0.02867 0.0025,0.02867 l -0.03653,0.04439 c 0,0 0.03934,0.07339 0.03934,0.0829 l 0,0.196977 -0.04187,0.108468 -0.02079,0.140218 -0.06295,0.06015 0.0028,0.03821 0.0548,0.05395 0.0081,0.06043 -0.01602,0.06688 0,0.06716 0.03934,0.111556 c 0,0 0.03914,0.03797 0.04693,0.02839 0.0078,-0.0096 0.0855,0.06048 0.0961,0.08261 0.01045,0.02229 0.106781,0.162322 0.106781,0.168873 0,0.0062 0.01574,0.03795 0.01574,0.03795 l 0.04693,0.194168 c 0,0 0.226878,0.229159 0.232111,0.219736 0.0052,-0.0092 0.242227,0.206546 0.242227,0.206546 0,0 0.190825,-0.114211 0.188273,-0.104538 -0.0028,0.0094 0.161298,-0.0098 0.161298,-0.0098 l 0.09919,0.0191 0.0725,0.04131 0.266393,-0.149204 0.05199,-0.04835 0.205694,-0.0089 0.09919,0.04723 c 0,0 0.06519,0.118035 0.06519,0.137122 0,0.01909 0.03909,0.104954 0.0444,0.09217 0.005,-0.01237 0.231998,-0.02523 0.239979,-0.02221 0.0075,0.0032 0.106782,0.121121 0.106782,0.121121 l -0.0053,0.111554 -0.01574,0.196978 -0.03119,0.09555 -0.03091,0.08599 -0.0079,0.06041 c 0,0 0.23408,0.420076 0.234079,0.423186 0,0.0032 0.06013,0.174782 0.06013,0.174782 l 0.07053,0.22002 0.04187,0.123648 -0.04187,0.06996 0.068,0.213861 -0.0236,0.209619 -0.101723,0.270609 -0.0444,0.200352 0.01321,0.267511 0.121957,0.308533 0.128137,0.353223 0.01292,0.388632 0.102004,0.231828 0.07306,0.187709 0.07025,0.204009 0.03625,0.06042 c 0,0 0.0055,0.101725 -0.0028,0.101725 -0.0076,0 -0.04644,0.0035 -0.03597,0.0222 0.01032,0.01902 0.06997,0.146402 0.06997,0.146402 l 0.0025,0.05761 0.08346,0.05676 0.07334,-0.04102 c 0,0 0.07301,-0.01574 0.08093,-0.01265 0.0076,0.0031 0.109029,-0.0416 0.109029,-0.0416 l 0.15652,0.02866 0.109591,-0.06996 0.119989,-0.0092 c 0,0 0.205696,-0.244959 0.205696,-0.238574 0,0.0063 0.189959,-0.298988 0.189959,-0.298988 l 0.09695,-0.102271 0.05452,-0.200364 -0.0076,-0.130104 c 0,0 0.0182,-0.06719 0.03625,-0.0798 0.01846,-0.01267 0.195578,-0.139932 0.195578,-0.139932 l 0.03681,-0.210205 -0.03428,-0.207094 c 0,0 -0.02613,-0.07903 -0.02613,-0.09188 0,-0.01252 0.01826,-0.07026 0.01826,-0.07026 l 0.172255,-0.187709 c 0,0 0.03907,-0.06042 0.05733,-0.08261 0.01833,-0.02221 0.179561,-0.108181 0.179561,-0.108181 l 0.109873,-0.130104 0.01827,-0.480788 c 0,0 -0.03932,-0.178596 -0.04187,-0.19418 -0.0025,-0.0163 -0.07812,-0.318075 -0.07812,-0.331016 0,-0.01252 -0.026,-0.197442 -0.02894,-0.213574 -0.0021,-0.01534 0.05986,-0.22872 0.05986,-0.22872 l 0.08627,-0.207105 0.3521,-0.493157 0.19839,-0.193904 0.29955,-0.598527 0.09666,-0.277066 0.02051,-0.279605 -0.06238,-0.01295 c 0,0 -0.03155,0.04463 -0.03934,0.05086 -0.0078,0.0064 -0.187433,0.0194 -0.187431,0.0194 l -0.219184,0.07923 -0.106781,0.04778 -0.104254,-0.133488 0.01546,-0.09526 -0.140504,-0.203996 -0.198106,-0.241395 c 0,0 -0.09951,-0.09273 -0.09414,-0.101998 0.0054,-0.0098 -0.0548,-0.232318 -0.0548,-0.225931 0,0.0063 -0.09919,-0.111291 -0.09919,-0.111291 l -0.0025,-0.213541 -0.106782,-0.212717 -0.117179,-0.26134 c 0,0 -0.09912,-0.299394 -0.109593,-0.315299 -0.0102,-0.01581 -0.04942,-0.09499 -0.03653,-0.09187 0.01304,0.0033 0.106783,-0.01295 0.106783,-0.01295 0,0 0.174786,0.251724 0.174786,0.264426 0,0.01266 0.104251,0.225656 0.104251,0.225656 0,0 0.07812,0.133739 0.07812,0.123909 0,-0.0091 0.01843,0.124205 0.01574,0.134035 -0.0026,0.0096 0.04693,0.155958 0.04693,0.155958 l 0.148651,0.162415 0.03119,0.117464 0.135446,0.181537 0.02641,0.114641 -0.09161,-0.102286 c 0,0 -0.02867,0.05763 -0.01827,0.06745 0.01032,0.0092 0.101726,0.127017 0.101726,0.127017 l 0.04468,0.16213 0.034,0.152882 0.04918,0.05085 0.146123,-0.03484 0.02585,-0.07026 0.143593,0 0.06238,-0.05705 0.07784,-0.01295 c 0,0 0.0603,-0.07353 0.06547,-0.07673 0.0054,-0.0031 0.23717,-0.127007 0.23717,-0.127007 0,0 0.0052,-0.09273 0.01574,-0.09273 0.01045,0 0.242508,-0.08908 0.242508,-0.08908 l 0.02332,-0.107906 0.08318,-0.0064 0.0236,-0.07306 0.08093,-0.06042 0.0101,-0.159054 0.06014,0.02193 0.01826,-0.05425 -0.02079,-0.03455 0.09133,-0.162152 0.0025,-0.05761 -0.0888,-0.09863 -0.04159,-0.05395 c 0,0 -0.140753,-0.01934 -0.146123,-0.03204 -0.0051,-0.01281 -0.05985,-0.165788 -0.05985,-0.165788 0,-0.04745 0.0026,-0.133571 -0.0053,-0.127017 -0.0075,0.0063 -0.05199,0.0666 -0.05199,0.0666 l -0.161297,0.181527 -0.141064,0.04468 c 0,0 -0.04671,-0.01587 -0.04946,-0.02528 -0.0026,-0.0096 -0.0079,-0.156243 -0.0079,-0.156243 0,0 -0.06003,-0.08572 -0.06238,-0.09835 -0.0025,-0.01281 -0.04721,0.111281 -0.04721,0.111281 0,0 -0.06779,-0.111411 -0.06013,-0.114938 0.0078,-0.0029 -0.03119,-0.111267 -0.03119,-0.111267 l -0.135161,-0.190522 -0.0079,-0.09891 c 0,0 0.06525,-0.08617 0.07559,-0.08936 0.01032,-0.0032 0.104113,-0.01879 0.114648,0.02276 0.01046,0.04097 0.0888,0.181335 0.0888,0.200363 0,0.019 0.119415,0.146212 0.132634,0.143018 0.01284,-0.0031 0.05969,0.02853 0.07559,0.04131 0.01556,0.01266 0.0467,0.035 0.05985,0.05115 0.01303,0.01557 0.04693,0.0064 0.04693,0.0064 l 0.08599,-0.01601 c 0,0 0.07025,-0.08285 0.07306,-0.06689 0.0023,0.01622 0.0834,0.02244 0.07306,0.0444 -0.01045,0.02237 0.0027,0.08637 0.01012,0.10537 0.0081,0.01927 0.359966,0.086 0.359966,0.086 l 0.161861,0.02529 c 0,0 0.17162,-0.01911 0.18209,-0.01911 0.01032,0 0.120048,0.01295 0.130388,0.0092 0.0102,-0.0029 0.166916,0.207108 0.166916,0.207108 l 0.14584,0.08936 0.03372,-0.0035 -0.0829,0.04469 c 0,0 0.0281,0.07965 0.0281,0.08907 0,0.0096 0.146123,0.13686 0.146123,0.13686 0,0 0.05207,-0.0416 0.05985,-0.0416 0.008,0 0.04453,-0.01592 0.04721,-0.03821 0.0025,-0.02221 -0.008,-0.0855 0.0051,-0.0919 0.01329,-0.0063 0.03121,-0.02553 0.03428,0.0035 0.0023,0.02845 0.0341,0.302219 0.02867,0.305173 -0.0057,0.0037 0.04411,0.206857 0.04411,0.216376 0,0.0096 0.0653,0.257991 0.06773,0.267499 0.0027,0.0093 0.10939,0.28941 0.117177,0.299001 0.0076,0.0096 0.112121,0.340284 0.112121,0.340284 0,0 0.06001,0.137169 0.05733,0.159615 -0.0025,0.02228 0.0211,0.130259 0.03681,0.143044 0.01558,0.01265 0.08571,0.04467 0.08571,0.04467 0,0 0.03899,-0.04177 0.04187,-0.05422 0.0024,-0.01267 0.03116,-0.06978 0.04131,-0.0888 0.01054,-0.01941 0.05806,-0.02546 0.06042,-0.01295 0.0024,0.01281 0.05732,0.04468 0.05732,0.04468 l -0.0056,0.155672 c 0,0 0.01061,0.101676 0.01826,0.140516 0.0021,0.0099 0.0083,0.01943 0.01602,0.02809 a 8.9808826,9.0825371 0 0 0 0.05676,-0.379351 c -0.01566,-0.02073 -0.02928,-0.03902 -0.03316,-0.04384 -0.0079,-0.0092 -0.05789,-0.01882 -0.05789,-0.01882 0,0 0.0056,0.03194 0.01067,0.04439 0.0054,0.01281 -0.01067,0.0163 -0.01067,0.0163 l -0.05986,-0.02865 0.0104,-0.08346 c 0,0 0.04489,-0.0095 0.05255,-0.0095 0.0076,0 -0.0031,-0.127303 -0.0031,-0.127303 0,0 0.01612,-0.225717 0.02135,-0.232103 0.0052,-0.0067 -0.0078,-0.229147 -0.02866,-0.238572 -0.02061,-0.0096 -1.1e-4,-0.08272 0.0104,-0.086 0.01032,-0.0033 0.11212,-0.04748 0.11212,-0.04748 l 0.02248,-0.05395 a 8.9808826,9.0825371 0 0 0 8.77e-4,-0.0166 8.9808826,9.0825371 0 0 0 -2.578501,-6.365828 c 8.3e-5,0 4.38e-4,0.0012 6.58e-4,0.0012 0.0054,0.02861 -0.01574,0.0635 -0.01574,0.0635 l -0.111839,-0.0635 -0.247847,-0.09526 c 0,0 -0.239678,-0.01916 -0.234638,-0.02866 0.0054,-0.0095 -0.09133,-0.07643 -0.09133,-0.07643 l -0.0548,0.03484 c 0,0 0.05202,0.04498 0.06014,0.04778 0.0078,0.0036 0.08599,0.0385 0.08599,0.0385 0,0 0.02356,0.01583 0.02866,0.04131 0.0054,0.02533 -0.04412,0.05704 -0.04412,0.05704 0,0 -0.03372,-0.04453 -0.03372,-0.05396 0,-0.0095 -0.0082,-0.04761 -0.01854,-0.04131 -0.01048,0.0064 -0.106784,0.06689 -0.106784,0.06689 0,0 -0.109363,0.0031 -0.122518,0.01573 -0.01302,0.01271 -0.08356,0.07339 -0.0888,0.05733 -0.0054,-0.01591 0.01049,-0.08284 0.0082,-0.09554 -0.0028,-0.0127 -0.109594,0.02248 -0.109594,0.02248 0,0 -0.137885,0.05387 -0.143313,0.06969 -0.0051,0.01613 -0.06767,0.03193 -0.0784,0.03512 -0.01032,0.0032 -0.02332,0.0031 -0.02332,0.0031 0,0 -0.0546,0.04154 -0.0444,0.06351 0.01045,0.02236 -0.07559,0.03485 -0.07559,0.03485 0,0 -0.05449,-0.04103 -0.05704,-0.0503 -0.0025,-0.0087 0.0593,-0.05948 0.06519,-0.06379 -0.008,0.0063 -0.06514,-0.08279 -0.07306,-0.08599 -0.0069,-0.0025 -0.148684,0.0019 -0.173944,0 0.01649,0.0074 0.06688,0.06708 0.06688,0.07587 0,0.0095 0.0081,0.102009 0.0081,0.102009 0,0 0.04119,0.03185 0.04918,0.0281 0.0078,-0.0029 -0.0079,0.05452 -0.0079,0.05452 l -0.06997,-0.0095 c 0,0 -0.02912,-0.0514 -0.05255,-0.02248 -0.02349,0.02892 -0.1014,0.102237 -0.106501,0.09273 -0.0053,-0.0095 -0.04983,0.0093 -0.04721,0.02838 0.0027,0.01918 0.03653,0.06042 0.03653,0.06042 0,0 -0.04924,0.05097 -0.0444,0.03204 0.0054,-0.01934 -0.135306,-0.06361 -0.145842,-0.06042 -0.01082,0.0032 -0.07053,0.02529 -0.07053,0.02529 l 0.02585,0.05395 c 0,0 0.07824,0.0064 0.08852,0.02557 0.01081,0.01901 -0.0179,0.05704 -0.02614,0.05704 -0.0073,0 -0.189959,-0.104811 -0.189959,-0.104811 0,0 -0.05993,-0.07614 -0.04187,-0.09835 0.01872,-0.02229 0.03416,-0.05732 0,-0.05732 -0.0337,0 -0.07014,-0.03198 -0.0725,-0.04468 -0.0027,-0.01271 0.205415,0.02557 0.205415,0.02557 l 0.12027,0.01574 c 0,0 -0.01543,0.01933 0.03147,0 0.04673,-0.0191 0.124975,-0.06698 0.135445,-0.0697 0.01045,-0.0037 0.02332,-0.06406 0.02332,-0.06406 l -0.01574,-0.05395 -0.447921,-0.130391 c 0,0 -0.148911,-0.05428 -0.151463,-0.06379 -0.0025,-0.0095 -0.132914,-0.02557 -0.132914,-0.02557 l -0.06266,0.01012 0.05227,-0.0798 c 0,0 -0.20353,-0.0733 -0.208505,-0.06379 l 0,0 z m 2.573724,0.09498 c 2.19e-4,0.01789 0.0024,0.04888 0.0042,0.06096 0.0024,0.0159 0.111841,0.05115 0.111841,0.05115 0,0 0.0059,0.0037 0.0076,0.0045 a 8.9808826,9.0825371 0 0 0 -0.123641,-0.116617 z m -1.526137,0.166061 c -0.0013,0 1.1e-4,0 0.0034,0 -0.0013,0 -0.0029,0 -0.0034,0 z m -4.493553,0.241943 -0.140503,0.09555 c 0,0 0.07015,0.0383 0.09358,0.05732 0.02343,0.01909 0.07053,-0.01911 0.07053,-0.01911 l 0,0.08599 c 0,0 0.12515,0.08582 0.109312,0.114651 -0.0155,0.02852 0.203448,-0.02894 0.203448,-0.02894 l 0.218902,-0.08599 0.04665,-0.104822 -0.08571,-0.0857 -0.399028,0.05705 -0.117179,-0.086 z m 3.317546,0.07448 c 0.0065,0.0012 0.01154,0.0044 0.01348,0.01156 0.0078,0.02859 0.0284,0.03488 0.0104,0.04439 -0.01826,0.0095 -0.05988,0.05417 -0.08599,0.08261 -0.02591,0.02852 -0.104459,0.09267 -0.114929,0.09554 -0.01025,0.0033 -0.01584,0.0094 -0.03653,0.02558 -0.02081,0.01557 -0.02088,-0.0223 -0.02585,0.03794 -0.0054,0.06055 -0.01301,0.127244 -0.0028,0.149776 0.01046,0.02221 0.01821,0.05736 0.0079,0.07333 -0.01032,0.01598 -0.0027,0.02535 0,0.05396 0.0027,0.0286 0.03458,0.04116 0.03681,0.05395 0.0024,0.0127 0.04412,0.03822 0.04412,0.03822 0.02081,-0.0029 0.04468,-0.0061 0.04946,0.0068 0.0054,0.01271 0.01602,0.0062 0.01602,0.0062 l 0.04384,-0.01292 c 0,0 0.04443,-0.03186 0.06014,-0.02866 0.01556,0.0032 0.03654,-0.0063 0.05479,0 0.01826,0.0064 0.09633,-0.02531 0.107064,-0.0222 0.01032,0.0036 0.08308,-0.03498 0.08852,-0.0222 0.0052,0.0127 0.0444,0.0095 0.0444,0.0095 l 0.03119,0.02866 c 0,0.01901 -0.0314,0.06362 -0.03906,0.07026 -0.0079,0.0062 -0.03382,0.03192 -0.04946,0.02528 -0.01556,-0.0062 -0.0264,0.0032 -0.04721,-0.0062 -0.02088,-0.0098 -0.06,-0.02276 -0.07053,-0.02276 -0.01039,0 -0.132634,0.03541 -0.132634,0.03541 l -0.06238,0.0222 -0.01067,0.04468 0.0079,0.0095 0.06266,0.04749 c 0,0.01605 0.02623,0.0064 0.02079,0.04468 -0.0051,0.0381 -0.008,0.05404 -0.01573,0.07306 -0.008,0.01917 -0.03914,0.05413 -0.04693,0.03175 -0.0078,-0.02221 -0.04651,-0.06355 -0.05704,-0.07306 -0.0102,-0.0095 -0.0417,-0.0031 -0.06042,-0.0031 -0.01813,0 -0.05452,0.03189 -0.05452,0.06688 0,0.03491 -0.01835,0.07965 -0.01067,0.11408 0.0079,0.03547 0.04199,0.08016 0.02641,0.102284 -0.01589,0.02237 -0.05214,0.03834 -0.06772,0.04778 -0.01556,0.0095 -0.0523,0.04118 -0.06519,0.04749 -0.01302,0.0063 -0.05222,0.02559 -0.06014,0.0033 -0.0076,-0.02236 -0.02332,-0.05732 -0.02332,-0.05732 0,0 -0.01309,-0.0317 -0.01855,-0.0222 -0.0047,0.0092 -0.03372,0.01293 -0.03372,0.01293 l -0.06744,0.03175 c 0,0 -0.03675,0.03155 -0.0444,0.03793 -0.0081,0.0063 -0.04702,0.0062 -0.06266,0.01574 -0.01556,0.0096 -0.0627,0.05741 -0.07559,0.03512 -0.01322,-0.02212 -0.02071,0.01589 -0.03681,-0.01911 -0.01525,-0.03491 -0.01027,-0.07314 -0.02866,-0.06659 -0.018,0.0063 -0.06,0.01905 -0.06491,0.03175 -0.0055,0.0127 -0.01045,0.01259 -0.02051,0.02529 -0.01045,0.01262 -0.08627,0.0222 -0.08627,0.0222 l 0,-0.0062 -2.19e-4,0 0.08627,-0.08907 0.01826,-0.08599 c 0,0 0.08076,0.01595 0.08318,0.02867 0.0026,0.01256 0.0211,-0.02892 0.04159,-0.0064 0.02107,0.02221 0.04706,0.01897 0.04974,0.03822 0.0023,0.01917 0.01824,0.04144 0.02079,0.02867 0.0025,-0.01279 0.0025,-0.05423 0.0025,-0.05423 0,0 -0.02332,-0.01567 -0.03653,-0.02558 -0.01317,-0.0094 -0.01028,-0.03802 0.0028,-0.0472 0.01283,-0.0095 0.04932,-0.0356 0.05985,-0.02585 0.01045,0.0093 0.05733,-0.01264 0.05733,-0.01264 0,0 0.0078,-0.01957 0.01292,-0.02867 0.0055,-0.0099 0.03147,-0.09554 0.03147,-0.09554 0,0 -0.0185,-0.0094 -0.0236,-0.03822 -0.0052,-0.02844 0.02883,-0.111326 0.03681,-0.114366 0.0075,-0.0033 0.109592,-0.07672 0.109592,-0.07672 0,0 0.03896,-0.05093 0.02332,-0.06659 -0.01576,-0.01613 -0.132914,-0.08611 -0.132914,-0.102008 0,-0.01591 -0.01322,-0.09875 -0.0056,-0.130391 0.0079,-0.03171 0.05495,-0.09231 0.06266,-0.105085 0.0079,-0.01239 0.0654,-0.09842 0.07587,-0.09554 0.01045,0.0035 0.04937,-0.0063 0.05957,-0.01236 0.01067,-0.0067 0.101846,-0.05758 0.08627,-0.06069 -0.01556,-0.0032 0.0052,-0.06044 -0.0028,-0.05733 -0.0078,0.0031 0.0079,-0.07293 0.02614,-0.07924 0.01813,-0.0063 0.04943,-0.03512 0.0576,-0.03512 0.0073,0 0.07041,0.0033 0.08599,0.0064 0.01166,0.0024 0.04523,-0.01477 0.06463,-0.01156 z m -1.977714,0.73398 -0.03625,0.01854 -0.034,0.06098 c 0,0 -0.03136,0.0095 -0.04412,0 -0.01288,-0.0095 -0.03933,1.07e-4 -0.04974,-0.0031 -0.01039,-0.0036 -0.03428,0.03821 -0.03428,0.03821 0,0 -0.03611,0.04747 -0.04664,0.05059 -0.01039,0.0032 -0.04674,0.0542 -0.04412,0.05732 0.0028,0.0032 0.0051,0.04468 0.0051,0.04468 0,0 -0.0078,0.01563 -0.02079,0.01883 -0.01293,0.0031 0.0104,0.05733 0.0104,0.05733 l 0.03147,0.01938 c 0,0 -0.0186,0.02207 -0.02894,0.01911 -0.01062,-0.0036 -0.03393,0.03168 -0.01574,0.04102 l 0,0 c 0.01833,0.0093 0.02587,0.02214 0.02332,0.03148 -0.0023,0.0099 0.03934,0.0163 0.03934,0.0163 l 0.034,-0.0095 -0.0236,0.0444 c 0,0 0.0052,0.02881 0.01292,0.04158 0.0081,0.01269 0.03428,0 0.03428,0 0,0 0.0624,-0.01275 0.07025,-0.0095 0.0076,0.003 -0.0028,0.03175 -0.0028,0.03175 l 0.02389,0.0444 c 0,0 0.01256,0.06368 0.01517,0.08261 0.0028,0.01942 -0.02079,0.01264 -0.02079,0.01264 0,0 -0.04892,0.0095 -0.05985,0.0068 -0.01039,-0.0032 -0.03127,0.02188 -0.04946,0.0472 -0.01839,0.02596 0.0028,0.0163 0.0028,0.0163 l 0.03878,0 c 0,0 0.0029,0.0315 0.0053,0.04468 0.0024,0.0127 -0.03138,0.0254 -0.04159,0.0222 -0.01041,-0.003 -0.05733,0.02558 -0.05733,0.02558 l 0.0022,0.04776 0.05761,0.0062 0.05761,0.0095 0.0104,0.0222 c 0,0 -0.037,0.0096 -0.04721,0 -0.01039,-0.0095 -0.04159,0.05086 -0.04159,0.05086 l -0.02866,0.03822 -0.06014,0.05732 0.03372,0.01911 0.02079,-0.03204 0.05255,0.0033 0.05705,-0.0095 c 0,0 0.03402,-0.05086 0.04187,-0.05086 0.0076,0 0.08852,-0.0031 0.08852,-0.0031 0,0 0.06527,-0.01595 0.07306,-0.0095 0.0078,0.0064 0.06017,0.01917 0.06828,0.0222 0.0076,0.0031 0.109029,-0.03484 0.109029,-0.03484 0,0 0.02096,-0.04126 0.02613,-0.05396 0.0054,-0.0127 -0.02846,-0.02553 -0.03625,-0.03512 -0.0078,-0.0095 0.02582,-0.02225 0.04159,-0.03175 0.0155,-0.0095 0.02075,-0.04468 0.02866,-0.06042 0.0075,-0.01574 -0.0106,-0.04805 -0.01321,-0.05732 -0.0025,-0.0099 -0.03912,-0.0069 -0.04946,-0.0099 -0.01039,-0.0033 -0.05452,0.0031 -0.05451,0.0031 l 0.0022,-0.0635 c 0,0 -0.122606,-0.20377 -0.119988,-0.213278 0.0026,-0.0093 -0.02857,-0.06983 -0.04159,-0.07278 -0.01303,-0.0032 -0.02876,-0.01647 -0.0444,-0.04187 -0.01551,-0.02525 0.02079,-0.05732 0.02079,-0.05732 0,0 0.04416,-0.05707 0.04946,-0.0697 0.0052,-0.01277 -0.0052,-0.05103 -0.01292,-0.05423 -0.0079,-0.0031 -0.09891,0.0033 -0.09891,0.0033 0,0 -0.02603,-0.02563 -0.02361,-0.03512 0.0027,-0.01002 0.0289,-0.01293 0.03681,-0.01293 0.0074,0 0.0545,-0.110887 0.06491,-0.114079 0.01033,-0.0035 -0.0079,-0.03204 -0.0079,-0.03204 z m -0.422069,0.464489 -0.04159,0.01601 -0.02388,0.04132 c 0,0 -0.03857,0.05085 -0.03091,0.04102 0.0081,-0.0092 0.02851,-0.0091 0.02361,0.0068 -0.0055,0.01581 -0.02642,0.03175 -0.02642,0.03175 l -0.03091,0 -0.0267,-0.0191 -0.03878,0.0062 -0.01321,0.02867 0.01602,0.04468 -0.02641,0.03202 0.03147,0.03175 0.03091,0.0093 -0.0048,0.04468 -0.034,0.01884 -0.0444,0.0354 -0.01321,0.06042 0.03934,0.02866 0.06238,0.01574 0.06519,-0.01911 0.05508,-0.03794 0.01545,-0.01911 0.09105,-0.007 0.0104,-0.04722 0.02107,-0.04776 0,-0.136848 0.04946,-0.03512 -0.01574,-0.0888 -0.07812,-0.02221 -0.06238,-0.01291 z m 3.699713,0.999253 c 0,0 -0.06248,0.0763 -0.07053,0.09076 -0.0081,0.01445 0.0042,0.06187 -0.01545,0.08121 -0.01937,0.019 -0.04721,0.0384 -0.05873,0.04327 -0.01197,0.0044 -0.0042,0.05245 0.0076,0.05732 0.01207,0.0049 0.05114,0.02361 0.05114,0.02361 l 0.171975,0.109587 0.105377,0.128973 0.08262,0.08149 c -6.4e-5,0 0.03476,0.04255 0.02304,0.05677 -0.01152,0.01445 -0.08599,0.105084 -0.08599,0.105084 l -0.148653,-0.02416 -0.101443,0 -0.08599,-0.03794 c 0,0 -0.05888,-0.02376 -0.07053,-0.03822 -0.01191,-0.01429 -0.08599,-0.04805 -0.08599,-0.04805 l -0.15652,0.04328 -0.121394,0.04299 -0.04271,0.04749 -0.144718,-0.04271 -0.08599,-0.05255 -0.04693,-0.0621 0.04299,0 -0.01545,-0.07643 0.0076,-0.05227 0.03906,-0.02894 0.02754,-0.138254 0.04693,-0.02389 0.01153,-0.07138 c 0,0 0.0393,-0.0433 0.05114,-0.0576 0.01171,-0.01414 0.05086,-0.08121 0.05086,-0.08121 l 0.09357,0.04778 c 0,0 0.09763,0.01451 0.08205,0.01938 -0.0159,0.0047 -0.06266,0.07165 -0.06266,0.07165 0,0 0.03526,0.0236 0.05142,0.03822 0.01525,0.0143 0.05063,0.03776 0.04271,0.0666 -0.0079,0.02851 0.05873,0.02388 0.05873,0.02389 l 0.02332,-0.04778 0.109312,-0.03316 0.03906,-0.02416 -0.06266,-0.02361 c 0,0 -0.05457,-0.02411 -0.04665,-0.03849 0.0079,-0.01445 0.05873,-0.109874 0.05873,-0.109874 0,0 0.128916,-0.04749 0.140502,-0.04749 0.01145,0 0.0902,-0.0191 0.0902,-0.0191 z m 1.010775,0.01208 c 0.005,-0.0012 0.0095,0.0012 0.01348,0.007 0.01545,0.02373 0.113245,0.06211 0.113245,0.06211 0,0 0.03544,0.0095 0.03119,0.02838 -0.0038,0.01941 -0.03513,0.14359 -0.03513,0.14359 0,0 -0.07005,-0.02391 -0.07784,-0.01911 -0.0076,0.0045 -0.06251,0.02849 -0.05086,0.0666 0.01164,0.03818 -0.04286,0.01434 -0.03906,0.03343 0.0037,0.01893 0.01177,0.04774 0.0236,0.05733 0.01178,0.0095 0.07779,0.05225 0.08571,0.08092 0.0076,0.02884 0.117179,0.114938 0.117179,0.114938 0,0 0.01179,0.0093 0.0079,0.02865 -0.0037,0.01901 -0.01172,0.119154 0,0.119154 0.01171,0 0.03906,-0.0048 0.03906,-0.0048 0,0 0.03543,-0.09052 0.04721,-0.08093 0.01164,0.0094 0.05854,0.05232 0.07025,0.08571 0.01145,0.0334 0.0351,0.06656 0.02332,0.07614 -0.01197,0.0094 -0.06648,0.0048 -0.08205,0.0048 -0.01537,0 -0.04307,-0.02384 -0.05086,-0.01433 -0.008,0.0095 -0.0234,0.03359 -0.0118,0.06211 0.01178,0.02892 0.03536,0.07166 0.04721,0.08149 0.01151,0.0094 0.02326,0.0043 0.05873,0.04298 0.03514,0.03819 0.04677,0.05698 0.03512,0.100046 -0.01178,0.04289 -0.004,0.08111 0,0.09525 0.0038,0.0143 0.01168,0.0478 0.01967,0.0621 0.0076,0.01438 0.0076,0.03316 0.0076,0.03316 l -0.113246,0.02389 -0.09807,0.01433 c 0,0 -0.08598,-0.04289 -0.08964,-0.06182 -0.0042,-0.01901 -0.02362,-0.06205 -0.03541,-0.05254 -0.01163,0.0096 -0.05073,0.01453 -0.06238,0.0099 -0.01163,-0.0049 -0.05508,-0.04779 -0.05508,-0.06689 0,-0.01893 -0.01184,-0.06187 0.0079,-0.08121 0.01976,-0.01901 0.05878,-0.05217 0.05086,-0.06687 -0.0075,-0.01414 -0.0118,-0.07593 -0.0118,-0.08599 0,-0.0096 -8.4e-5,-0.01902 0.02361,-0.02389 l 0.0236,-0.0048 c 0,0 0.0076,-0.02833 -0.0042,-0.04271 -0.01163,-0.01437 -0.08213,-0.07654 -0.08992,-0.09076 -0.0073,-0.0142 -0.09373,-0.114485 -0.105378,-0.129258 -0.01157,-0.01399 -0.06266,-0.05677 -0.06266,-0.05677 l -0.02726,-0.07193 0.02332,-0.09049 -0.07025,-0.01911 -0.01546,-0.06182 0,-0.01432 0.07391,-0.104822 c 0,0 0.05108,-0.03355 0.06266,-0.02444 0.01171,0.0099 0.03904,-0.02842 0.04356,-0.04271 0.0035,-0.01462 0.07767,-0.07649 0.09358,-0.086 0.01162,-0.007 0.02987,-0.03323 0.04496,-0.03568 z m -3.091057,0.136002 c -0.004,0.01405 0.01957,0.03354 0.03541,0.07643 0.01539,0.04314 0.07813,0.114438 0.08598,0.143033 0.0077,0.02852 0.094,0.110158 0.113245,0.119428 0.01989,0.0094 0.03127,0.03832 0.07053,0.05733 0.03927,0.01917 0.03527,0.0282 0.08599,0.05703 0.05059,0.02869 0.05879,0.03858 0.06632,0.05255 0.0081,0.01454 0.03889,0.0099 0.05086,0.03372 0.01163,0.02372 0.02754,0.02846 0.02754,0.05227 0,0.02373 0.01586,0.02388 0.0076,0.07165 -0.0076,0.04769 -0.01944,0.06187 -0.01546,0.07138 0.0039,0.0098 0.07431,0.186591 0.101722,0.186591 0.02729,0 0.109225,0.03821 0.09751,0.09525 -0.01163,0.0572 0.05086,0.133475 0.05086,0.133475 0,0 0.05239,0.0042 0.08852,0.01156 0.0015,-0.03331 -0.0044,-0.08684 0.02529,-0.107062 0.03481,-0.02389 0.08575,-0.04781 0.07784,-0.07138 -0.008,-0.02381 -0.01577,-0.0671 -0.04693,-0.09554 -0.03089,-0.02851 -0.06246,-0.04326 -0.07025,-0.09048 -0.0076,-0.04785 -0.01967,-0.110301 0.01546,-0.09105 0.03514,0.01893 0.06637,0.110243 0.08233,0.04778 0.01538,-0.06192 0.05448,-0.105144 0.08177,-0.09076 0.02768,0.0143 0.07839,0.03823 0.07447,0.05732 -0.004,0.0191 0.03513,0.17197 0.03513,0.17197 0,0 0.0158,0.01457 0.0236,0.086 0.0078,0.07142 0.05852,0.09048 0.05086,0.114366 -0.0079,0.02364 -0.03163,0.03802 0.03119,0.04777 0.06224,0.0096 0.121395,0.02363 0.121395,0.04271 0,0.01918 0.05059,0.02921 0.05845,0.04327 0.0076,0.01438 0.05474,0.04287 0.06266,0.01433 0.0078,-0.02836 0.02341,-0.08602 0.03513,-0.07643 0.01171,0.0099 0.109543,0.0096 0.117463,0.04805 0.0081,0.03763 0.07418,0.03763 0.07418,0.04778 0,0.0092 0.05873,-0.02389 0.05873,-0.02389 0,0 0.08189,-0.07641 0.105379,-0.06211 0.02336,0.01431 0.08984,-0.0528 0.08205,0.0093 -0.0076,0.06207 0.04324,0.11962 0.0236,0.181527 -0.0195,0.06216 -0.01938,0.14297 -0.04693,0.205127 -0.02749,0.06177 -0.03929,0.09537 -0.05873,0.134047 -0.01963,0.03771 -0.01971,0.09027 -0.05086,0.114068 -0.03122,0.02406 -0.07796,0.05725 -0.105377,0.03346 -0.02716,-0.02397 -0.136888,-0.01885 -0.14893,-0.01409 -0.01157,0.0048 -0.144124,-0.005 -0.159893,0.02809 -0.01556,0.03355 -0.117031,0.0098 -0.133195,0 -0.01556,-0.0094 -0.206982,-0.105048 -0.222557,-0.109588 -0.01556,-0.0048 -0.113772,-0.05708 -0.129543,-0.07138 -0.01556,-0.01447 -0.113106,-0.02905 -0.116899,-0.04327 -0.004,-0.01439 0.0078,-0.03318 -0.0081,-0.02838 -0.01532,0.0045 -0.128861,0.04755 -0.144437,0.06154 -0.0159,0.01485 -0.05058,0.0531 -0.05058,0.0531 0,0 -0.04748,0.05715 -0.04355,0.100044 0.0042,0.04299 0.04705,0.07623 0.03147,0.100044 -0.01556,0.02379 -0.07025,0.05254 -0.07025,0.05254 0,0 -0.05888,-0.06664 -0.07812,-0.07616 -0.01957,-0.0096 -0.203167,-0.04299 -0.203167,-0.04299 l -0.07447,-0.105096 c 0,0 -0.1172,-0.09551 -0.128981,-0.100329 -0.01184,-0.0048 -0.140973,0 -0.160736,-0.01881 -0.01964,-0.01941 -0.08209,-0.119536 -0.113243,-0.114652 -0.03134,0.0048 -0.01931,-0.05737 -0.0076,-0.06687 0.01164,-0.0095 0.04685,-0.09051 0.04299,-0.10481 -0.004,-0.01447 0.01933,-0.09534 -0.01967,-0.119143 -0.03907,-0.02445 -0.0118,-0.105656 -0.0118,-0.105656 0,0 0.03924,-0.0095 0.0236,-0.0095 -0.01563,0 -0.07443,0.005 -0.0902,-0.01883 -0.01538,-0.02388 -0.01966,-0.03331 -0.03485,-0.02388 -0.01597,0.0096 -0.113744,0.02868 -0.125327,0.02388 -0.01185,-0.0048 -0.105474,0.0095 -0.121113,0.0095 -0.01556,0 0.004,0.0049 -0.01546,0 -0.01983,-0.0048 -0.09821,0.03827 -0.102003,0.05704 -0.0036,0.0191 -0.08173,-0.0044 -0.09358,0 -0.0119,0.0048 -0.125328,0.0048 -0.125328,0.0048 l -0.187712,0.03822 c 0,0 -0.125118,0.07679 -0.128981,0.100593 -0.0039,0.02389 -0.04315,0.06211 -0.05479,0.07138 -0.01157,0.0096 -0.08195,0 -0.08627,-0.01406 -0.0037,-0.0143 -0.128981,0.0048 -0.128981,0.0048 0,0 -0.05068,-0.03357 -0.06632,-0.01911 -0.01556,0.01431 -0.01545,-0.0621 -0.01545,-0.0621 l 0.01939,-0.05676 0.07025,-0.0576 0.168602,-0.0385 0.08205,-0.0666 0.05058,-0.02389 0.03119,-0.100034 c 0,0 0.05872,-0.0144 0.0548,-0.02895 -0.0038,-0.0143 -0.01939,-0.08092 -0.01939,-0.08092 l 0.113244,-0.214683 0.160174,-0.09554 0.02754,-0.06688 c 0,0 -0.01545,-0.08577 -0.0039,-0.100318 0.01163,-0.01437 0.117179,-0.04327 0.117179,-0.04327 l 0.133194,0.05255 c 0,0 0.07013,-0.05701 0.08571,-0.0666 0.01556,-0.0096 0.0902,-0.06211 0.0902,-0.06211 0,0 0.0076,-0.04264 0.02332,-0.03794 0.01563,0.0048 0.08194,-0.0143 0.08992,0.02389 0.0078,0.0382 0.0666,0.157364 0.0666,0.157364 l 0.08964,0.114651 0.08627,0.08121 0.105657,0.04749 c 0,0 0.06254,0.06686 0.07419,0.07165 0.01172,0.0047 0.07025,0.08627 0.07025,0.08627 l 0.03119,0.06631 c 0,0 -0.01949,0.05274 -0.03513,0.07672 -0.01556,0.02357 -0.0624,0.08603 -0.07418,0.08092 -0.01178,-0.0044 -0.102007,-0.0236 -0.102007,-0.0236 l -0.09751,0.01433 c 0,0 -0.01548,0.02874 0.0118,0.05254 0.02736,0.02382 0.05848,0.01893 0.08571,0.03793 0.02781,0.01902 0.09807,0.05761 0.09807,0.05761 0,0 0.04721,0.0091 0.04721,0.02333 0,0.01437 0.01546,-0.03807 0.01153,-0.07138 -0.0039,-0.03331 -0.008,-0.07604 0.01939,-0.0857 0.02755,-0.0095 0.07025,0 0.07025,-0.01462 0,-0.01421 0.01208,-0.03343 0.01208,-0.03343 l 0.03513,-0.05227 -0.0039,-0.03316 0.03541,-0.034 c 0,0 -0.0195,-0.02806 -0.03541,-0.05227 -0.01545,-0.02396 -0.03128,-0.03821 -0.01995,-0.0621 0.01197,-0.02373 0.05113,-0.05739 0.07109,-0.03822 0.01943,0.01901 0.07784,0.02851 0.07391,0.05255 -0.0037,0.02364 -1.1e-4,0.05699 0.0079,0.03821 0.0075,-0.01925 0.0039,-0.09554 0.0039,-0.09554 0,0 -0.03131,-0.05224 -0.05873,-0.05705 -0.02709,-0.005 -0.09809,-0.04781 -0.117459,-0.05732 -0.01943,-0.0095 -0.05451,-0.03344 -0.05452,-0.03344 0,0 0.0155,-0.05228 -0.0076,-0.04749 -0.02369,0.0048 -0.09386,-0.0099 -0.09386,-0.02388 0,-0.01462 -0.07058,-0.08157 -0.07418,-0.09554 -0.0039,-0.01462 -0.0666,-0.119714 -0.0666,-0.119714 0,0 -0.03533,-0.04274 -0.03906,-0.05705 -0.004,-0.01437 -0.0079,-0.0384 -0.01574,-0.07643 -0.0081,-0.03819 0.07805,-0.133644 0.07419,-0.119429 z m -8.618145,2.89236 c 0,-0.0099 -0.133196,0.128698 -0.133197,0.128698 l 0,0.01439 c 0,0 0.01159,0.06654 0.01602,0.08092 0.0037,0.01425 0.08972,-0.07634 0.09751,-0.114365 0.0078,-0.03804 0.07041,-0.04803 0.08599,-0.05761 0.0159,-0.0092 0.02335,0.03851 0.03906,0.03851 0.01584,0 0.08627,0.02866 0.08627,0.02866 l 0.140503,0.05732 0.0548,0.06182 c 0,0 0.02332,0.152289 0.02332,0.171696 0,0.01927 0.10566,0.0092 0.10566,0.0092 l 0.2071,-0.02332 c -6.5e-5,-8.2e-5 0.06685,-0.048 0.06267,-0.06238 -0.0036,-0.01411 -0.06264,-0.03766 -0.09386,-0.03766 -0.03128,0 -0.144715,-0.134012 -0.152306,-0.162689 -0.0081,-0.02869 -0.261896,-0.104823 -0.261896,-0.104823 0,0 -0.277634,-0.01903 -0.277634,-0.02838 z m 0.891068,0.38638 c -0.03102,0 0,0.043 0,0.043 l -0.01152,0.138254 -0.128981,0 -0.0039,0.01438 c 0,0 -0.03541,0.01425 -0.03541,0.04299 1.09e-4,0.02861 0.04711,0.01916 0.06688,0.02866 0.0193,0.0095 0.05048,-0.0048 0.06632,-0.0048 0.01584,0 0.0666,-0.01438 0.0666,-0.01438 0,0 0.01545,0.04296 0.01545,0.05733 0,0.0141 0.08206,-0.005 0.08206,-0.01939 0,-0.01438 0.01967,-0.05227 0.01967,-0.05227 l 0.09751,-0.02388 c 0,0 0.13307,0.0048 0.144716,0.0048 0.01178,0 0.01975,-0.02844 -0.0039,-0.08093 -0.02323,-0.05264 -0.09002,-0.06261 -0.105659,-0.100878 -0.01563,-0.03786 -0.08968,-0.01367 -0.10931,0 -0.0195,0.01446 -0.12898,-0.03287 -0.160454,-0.03287 z m 11.056708,4.069208 c -0.01079,0.0043 -0.02838,0.0295 -0.02838,0.0295 0,0 -0.08354,0.11471 -0.08852,0.134049 -0.0055,0.01878 -0.07295,0.120595 -0.08374,0.152299 -0.01045,0.0318 -0.09357,0.101724 -0.09357,0.101724 l -0.151181,0.07643 c 0,0 -0.05204,0.0064 -0.03653,0.03232 0,0 -0.01039,0.05047 -0.04665,0.107895 -0.03665,0.05712 0,0.133477 0,0.133477 l 0.02051,0.127304 0,0.121108 c 0,0 -0.03135,0.133702 -0.04693,0.139934 -0.01545,0.0064 -0.04147,0.04471 -0.05704,0.108466 -0.01584,0.0635 -0.01067,0.107898 -0.01067,0.107898 0,0 0.01049,0.09541 -0.0053,0.11465 -0.0159,0.01903 0.02625,0.114485 0.04215,0.146689 0.01556,0.03155 0.05732,0.05058 0.05732,0.05058 0,0 0.03621,0.03833 0.05199,0.05086 0.01556,0.01281 0.09357,-0.02501 0.09357,-0.02501 0,0 0.05762,-0.03166 0.07306,-0.04468 0.01571,-0.01309 0.02631,-0.01923 0.05733,-0.08289 0.03148,-0.06368 0.01054,-0.0445 0.01545,-0.0635 0.0056,-0.01903 0.03636,-0.10213 0.05227,-0.210204 0.01556,-0.108251 0.02112,-0.101878 0.04187,-0.197263 0.02068,-0.09554 0.04675,-0.121003 0.05199,-0.19698 0.0052,-0.07645 0.01033,-0.108658 0.01546,-0.134322 0.0053,-0.02523 0.05769,-0.120513 0.06266,-0.184337 0.0051,-0.06335 0.005,-0.09529 -0.0051,-0.120536 -0.01032,-0.02582 0.06257,-0.0069 0.07278,-0.04496 0.01067,-0.03827 -1.4e-5,-6e-5 0.0053,-0.01884 0.0053,-0.01941 0.01067,-0.139993 0.01067,-0.209907 0,-0.06996 -0.05719,-0.178843 -0.06295,-0.197538 -0.0012,-0.0048 -0.0043,-0.0056 -0.0079,-0.0042 z"
       id="path4166"
       inkscape:connector-curvature="0" />
    <path
       id="ellipse4172"
       d="m -11.49955,53.398277 a 8.9808807,9.0825367 0 0 1 -8.980881,9.082537 8.9808807,9.0825367 0 0 1 -8.98088,-9.082537 8.9808807,9.0825367 0 0 1 8.98088,-9.082536 8.9808807,9.0825367 0 0 1 8.980881,9.082536 z"
       style="display:inline;fill:none;fill-opacity:1;fill-rule:evenodd;stroke:#cccccc;stroke-width:0.5478707;stroke-miterlimit:4;stroke-dasharray:none;stroke-opacity:1" />
  </g>
</svg>
